<svg xmlns="http://www.w3.org/2000/svg" width="2.75in" height="3in" viewBox="0 0 198 216">
  <!-- Bench & Bloom FRONT label (final). Sized for Uline S-23397 8oz Boston round
       (3.125in label area, 7.46in circ.). TRIM 2.5 x 2.75in, 0.125in bleed.
       Units = points (72pt = 1in). Fonts: Fraunces + Inter. Delete #guides before print. -->
  <rect x="0" y="0" width="198" height="216" fill="#F7F3EE"/>

  <!-- final sprig mark -->
  <svg x="77" y="9" width="44" height="44" viewBox="-19.50 11.00 159 159">
    <g fill="#5A4A78"><ellipse cx="60" cy="34" rx="3" ry="5"/><ellipse cx="60" cy="48" rx="3.4" ry="6"/><ellipse cx="60" cy="62" rx="3.6" ry="6.2"/><ellipse cx="60" cy="76" rx="3.4" ry="6"/></g>
    <g fill="#7E6FA0"><ellipse cx="53" cy="42" rx="3.2" ry="6" transform="rotate(-24 53 42)"/><ellipse cx="67" cy="42" rx="3.2" ry="6" transform="rotate(24 67 42)"/><ellipse cx="51" cy="55" rx="3.6" ry="6.5" transform="rotate(-27 51 55)"/><ellipse cx="69" cy="55" rx="3.6" ry="6.5" transform="rotate(27 69 55)"/><ellipse cx="51" cy="68" rx="3.6" ry="6.5" transform="rotate(-27 51 68)"/><ellipse cx="69" cy="68" rx="3.6" ry="6.5" transform="rotate(27 69 68)"/><ellipse cx="54" cy="81" rx="3.2" ry="6" transform="rotate(-22 54 81)"/><ellipse cx="66" cy="81" rx="3.2" ry="6" transform="rotate(22 66 81)"/></g>
    <path d="M60 88 C60 110 60 130 60 150" stroke="#8A9A78" stroke-width="3.0" fill="none" stroke-linecap="round"/>
    <path d="M60 116 C54 114 49 118 46 126" stroke="#8A9A78" stroke-width="2.6" fill="none" stroke-linecap="round"/>
    <path d="M60 116 C66 114 71 118 74 126" stroke="#8A9A78" stroke-width="2.6" fill="none" stroke-linecap="round"/>
  </svg>

  <text x="99" y="74" text-anchor="middle" font-family="Fraunces, Georgia, serif" font-weight="600" font-size="23" fill="#5A4A78">Bench &amp; Bloom</text>
  <text x="99" y="86" text-anchor="middle" font-family="Inter, Arial, sans-serif" font-weight="600" font-size="6.4" letter-spacing="1.8" fill="#7A5E28">NARAMATA BENCH BOTANICALS</text>
  <line x1="72" y1="94" x2="126" y2="94" stroke="#C2A05E" stroke-width="0.8"/>

  <text x="99" y="114" text-anchor="middle" font-family="Fraunces, Georgia, serif" font-weight="600" font-size="15" fill="#2D2933">Lavender Simple Syrup</text>
  <text x="99" y="127" text-anchor="middle" font-family="Inter, Arial, sans-serif" font-style="italic" font-size="10" fill="#5A5266">Sirop simple à la lavande</text>

  <text x="99" y="148" text-anchor="middle" font-family="Inter, Arial, sans-serif" font-size="6.4" fill="#2D2933">Small batch &#183; estate-grown &#183; Naramata Bench</text>
  <text x="99" y="160" text-anchor="middle" font-family="Inter, Arial, sans-serif" font-size="6.4" fill="#7A5E28">Lavender + butterfly pea &#183; blooms blue to pink</text>

  <text x="99" y="198" text-anchor="middle" font-family="Inter, Arial, sans-serif" font-weight="600" font-size="13" fill="#2D2933">250 mL</text>

  <g id="guides" fill="none">
    <rect x="9" y="9" width="180" height="198" stroke="#E6007E" stroke-width="0.4" stroke-dasharray="3 2"/>
    <rect x="18" y="18" width="162" height="180" stroke="#00AEEF" stroke-width="0.4" stroke-dasharray="3 2"/>
  </g>
</svg>
