<svg xmlns="http://www.w3.org/2000/svg" viewBox="-138.99 -190.40 1434.39 310.83" role="img" aria-label="Bench &amp; Bloom"><title>Bench &amp; Bloom</title><g transform="matrix(1.5935,0,0,1.5935,-167.11,-179.20)">
<g fill="#5A4A78"><ellipse cx="60" cy="34" rx="3" ry="5"/><ellipse cx="60" cy="48" rx="3.4" ry="6"/><ellipse cx="60" cy="62" rx="3.6" ry="6.2"/><ellipse cx="60" cy="76" rx="3.4" ry="6"/></g>
<g fill="#7E6FA0"><ellipse cx="53" cy="42" rx="3.2" ry="6" transform="rotate(-24 53 42)"/><ellipse cx="67" cy="42" rx="3.2" ry="6" transform="rotate(24 67 42)"/><ellipse cx="51" cy="55" rx="3.6" ry="6.5" transform="rotate(-27 51 55)"/><ellipse cx="69" cy="55" rx="3.6" ry="6.5" transform="rotate(27 69 55)"/><ellipse cx="51" cy="68" rx="3.6" ry="6.5" transform="rotate(-27 51 68)"/><ellipse cx="69" cy="68" rx="3.6" ry="6.5" transform="rotate(27 69 68)"/><ellipse cx="54" cy="81" rx="3.2" ry="6" transform="rotate(-22 54 81)"/><ellipse cx="66" cy="81" rx="3.2" ry="6" transform="rotate(22 66 81)"/></g>
<path d="M60 88 C60 110 60 130 60 150" stroke="#8A9A78" stroke-width="2.4" fill="none" stroke-linecap="round"/>
<path d="M60 116 C54 114 49 118 46 126" stroke="#8A9A78" stroke-width="2.2" fill="none" stroke-linecap="round"/>
<path d="M60 116 C66 114 71 118 74 126" stroke="#8A9A78" stroke-width="2.2" fill="none" stroke-linecap="round"/></g><path d="M123.80000000000001 -33.7Q123.80000000000001 -18.7 111.35000000000001 -9.35Q98.9 0.0 74.9 0.0H7.800000000000001Q7.300000000000001 0.0 7.050000000000001 -0.2Q6.800000000000001 -0.4 6.800000000000001 -0.6000000000000001Q6.800000000000001 -1.2000000000000002 8.0 -1.4000000000000001L16.1 -2.6Q18.2 -3.0 19.1 -3.9000000000000004Q20.0 -4.800000000000001 20.0 -6.7V-134.6Q20.0 -135.8 19.25 -136.4Q18.5 -137.0 16.1 -137.4L8.0 -138.6Q6.800000000000001 -138.8 6.800000000000001 -139.4Q6.800000000000001 -139.6 7.050000000000001 -139.8Q7.300000000000001 -140.0 7.800000000000001 -140.0H56.6Q75.7 -140.0 88.95 -134.95Q102.2 -129.9 109.0 -121.0Q115.80000000000001 -112.10000000000001 115.80000000000001 -100.4Q115.80000000000001 -90.60000000000001 110.45000000000002 -82.95Q105.10000000000001 -75.3 95.05000000000001 -70.95Q85.0 -66.60000000000001 71.0 -66.60000000000001L75.3 -67.2Q89.60000000000001 -67.2 100.55000000000001 -62.85Q111.5 -58.5 117.65 -50.95Q123.80000000000001 -43.400000000000006 123.80000000000001 -33.7ZM64.2 -65.60000000000001H44.800000000000004V-67.60000000000001H65.5Q74.0 -67.60000000000001 79.7 -71.2Q85.4 -74.8 88.25 -81.80000000000001Q91.10000000000001 -88.80000000000001 91.10000000000001 -98.80000000000001Q91.10000000000001 -110.60000000000001 86.55000000000001 -119.45000000000002Q82.0 -128.3 74.1 -133.2Q66.2 -138.1 56.1 -138.1H47.400000000000006V-6.0Q47.400000000000006 -3.8000000000000003 48.85000000000001 -2.85Q50.300000000000004 -1.9000000000000001 52.900000000000006 -1.9000000000000001H68.0Q76.80000000000001 -1.9000000000000001 83.20000000000002 -5.95Q89.60000000000001 -10.0 93.0 -17.25Q96.4 -24.5 96.4 -34.1Q96.4 -48.6 88.15 -57.10000000000001Q79.9 -65.60000000000001 64.2 -65.60000000000001ZM213.4 -51.7Q213.4 -50.800000000000004 212.85000000000002 -50.300000000000004Q212.3 -49.800000000000004 211.10000000000002 -49.800000000000004H149.20000000000002V-51.5H187.9Q189.60000000000002 -51.5 189.60000000000002 -53.400000000000006Q189.60000000000002 -71.2 184.85000000000002 -79.7Q180.10000000000002 -88.2 173.3 -88.2Q167.70000000000002 -88.2 163.60000000000002 -84.35Q159.5 -80.5 157.25 -72.6Q155.0 -64.7 155.0 -52.5Q155.0 -31.900000000000002 163.60000000000002 -21.6Q172.20000000000002 -11.3 186.20000000000002 -11.3Q196.5 -11.3 203.65 -17.05Q210.8 -22.8 211.60000000000002 -32.6Q211.70000000000002 -33.0 211.90000000000003 -33.150000000000006Q212.10000000000002 -33.300000000000004 212.20000000000002 -33.300000000000004Q212.4 -33.300000000000004 212.60000000000002 -33.1Q212.8 -32.9 212.8 -32.4Q212.20000000000002 -22.5 207.05 -14.75Q201.9 -7.0 193.45 -2.5Q185.0 2.0 174.5 2.0Q162.10000000000002 2.0 152.75 -3.5Q143.4 -9.0 138.10000000000002 -18.950000000000003Q132.8 -28.900000000000002 132.8 -42.2Q132.8 -56.400000000000006 138.15 -67.10000000000001Q143.5 -77.80000000000001 153.3 -83.80000000000001Q163.10000000000002 -89.80000000000001 176.20000000000002 -89.80000000000001Q187.5 -89.80000000000001 195.85 -84.85000000000001Q204.2 -79.9 208.8 -71.30000000000001Q213.4 -62.7 213.4 -51.7ZM253.10000000000002 -88.4V-5.5Q253.10000000000002 -4.2 253.65000000000003 -3.4000000000000004Q254.20000000000002 -2.6 255.5 -2.4000000000000004L261.0 -1.4000000000000001Q262.0 -1.2000000000000002 262.0 -0.6000000000000001Q262.0 0.0 261.20000000000005 0.0H220.9Q220.60000000000002 0.0 220.35000000000002 -0.2Q220.10000000000002 -0.4 220.10000000000002 -0.6000000000000001Q220.10000000000002 -0.9 220.3 -1.05Q220.5 -1.2000000000000002 221.10000000000002 -1.3L226.8 -2.4000000000000004Q228.10000000000002 -2.6 228.65000000000003 -3.4000000000000004Q229.20000000000002 -4.2 229.20000000000002 -5.4V-78.5Q229.20000000000002 -79.10000000000001 228.90000000000003 -79.45000000000002Q228.60000000000002 -79.80000000000001 227.9 -79.80000000000001H221.4Q220.9 -79.80000000000001 220.7 -80.0Q220.5 -80.2 220.5 -80.5Q220.5 -80.80000000000001 220.75 -80.95000000000002Q221.0 -81.10000000000001 221.3 -81.2L250.0 -89.2Q250.9 -89.5 251.25 -89.55000000000001Q251.60000000000002 -89.60000000000001 252.0 -89.60000000000001Q252.5 -89.60000000000001 252.8 -89.25Q253.10000000000002 -88.9 253.10000000000002 -88.4ZM251.0 -68.7 250.0 -69.7 253.60000000000002 -72.9Q264.0 -82.30000000000001 272.20000000000005 -86.05000000000001Q280.40000000000003 -89.80000000000001 287.5 -89.80000000000001Q297.40000000000003 -89.80000000000001 303.70000000000005 -83.70000000000002Q310.0 -77.60000000000001 310.0 -64.7V-6.1000000000000005Q310.0 -4.5 310.75 -3.5Q311.5 -2.5 313.1 -2.2L317.90000000000003 -1.3Q318.5 -1.3 318.70000000000005 -1.1Q318.90000000000003 -0.9 318.90000000000003 -0.6000000000000001Q318.90000000000003 -0.4 318.70000000000005 -0.2Q318.5 0.0 318.0 0.0H277.6Q276.70000000000005 0.0 276.70000000000005 -0.6000000000000001Q276.70000000000005 -1.2000000000000002 277.8 -1.4000000000000001L283.40000000000003 -2.4000000000000004Q285.1 -2.7 285.65000000000003 -3.6500000000000004Q286.20000000000005 -4.6000000000000005 286.20000000000005 -6.1000000000000005V-62.2Q286.20000000000005 -71.10000000000001 282.25 -75.15Q278.3 -79.2 271.6 -79.2Q267.40000000000003 -79.2 263.1 -77.45Q258.8 -75.7 254.4 -71.8ZM401.70000000000005 -66.3Q401.70000000000005 -61.0 398.65000000000003 -57.8Q395.6 -54.6 390.40000000000003 -54.6Q385.0 -54.6 381.9 -57.900000000000006Q378.8 -61.2 378.8 -67.4V-74.7Q378.8 -81.0 375.45000000000005 -84.55000000000001Q372.1 -88.10000000000001 366.40000000000003 -88.10000000000001Q360.5 -88.10000000000001 356.05 -83.9Q351.6 -79.7 349.20000000000005 -71.95Q346.8 -64.2 346.8 -53.6Q346.8 -40.400000000000006 350.6 -31.35Q354.40000000000003 -22.3 360.95000000000005 -17.65Q367.5 -13.0 375.8 -13.0Q384.90000000000003 -13.0 391.40000000000003 -17.1Q397.90000000000003 -21.200000000000003 400.20000000000005 -29.900000000000002Q400.3 -30.3 400.5 -30.450000000000003Q400.70000000000005 -30.6 400.90000000000003 -30.5Q401.20000000000005 -30.5 401.30000000000007 -30.25Q401.40000000000003 -30.0 401.3 -29.6Q399.40000000000003 -19.6 394.25 -12.55Q389.1 -5.5 381.35 -1.7999999999999998Q373.6 1.9000000000000001 363.70000000000005 1.9000000000000001Q352.40000000000003 1.9000000000000001 343.45000000000005 -3.0999999999999996Q334.5 -8.1 329.3 -17.900000000000002Q324.1 -27.700000000000003 324.1 -42.0Q324.1 -55.7 329.75 -66.45Q335.40000000000003 -77.2 345.35 -83.5Q355.3 -89.80000000000001 368.3 -89.80000000000001Q379.1 -89.80000000000001 386.5 -86.70000000000002Q393.90000000000003 -83.60000000000001 397.80000000000007 -78.30000000000001Q401.70000000000005 -73.0 401.70000000000005 -66.3ZM438.7 -68.7 437.7 -69.7 441.3 -72.9Q451.7 -82.30000000000001 459.9 -86.05000000000001Q468.1 -89.80000000000001 475.2 -89.80000000000001Q485.1 -89.80000000000001 491.4 -83.70000000000002Q497.7 -77.60000000000001 497.7 -64.7V-6.1000000000000005Q497.7 -4.5 498.45 -3.5Q499.2 -2.5 500.8 -2.2L505.6 -1.3Q506.2 -1.3 506.4 -1.1Q506.6 -0.9 506.6 -0.6000000000000001Q506.6 -0.4 506.4 -0.2Q506.2 0.0 505.7 0.0H465.3Q464.4 0.0 464.4 -0.6000000000000001Q464.4 -1.2000000000000002 465.5 -1.4000000000000001L471.1 -2.4000000000000004Q472.8 -2.7 473.35 -3.6500000000000004Q473.9 -4.6000000000000005 473.9 -6.1000000000000005V-62.2Q473.9 -71.10000000000001 469.95 -75.15Q466.0 -79.2 459.3 -79.2Q455.1 -79.2 450.8 -77.45Q446.5 -75.7 442.1 -71.8ZM440.8 -147.3V-5.5Q440.8 -4.2 441.35 -3.4000000000000004Q441.9 -2.6 443.2 -2.4000000000000004L448.7 -1.4000000000000001Q449.7 -1.2000000000000002 449.7 -0.6000000000000001Q449.7 0.0 448.9 0.0H408.6Q408.3 0.0 408.05 -0.2Q407.8 -0.4 407.8 -0.6000000000000001Q407.8 -0.9 408.1 -1.1500000000000001Q408.4 -1.4000000000000001 409.1 -1.5L414.5 -2.4000000000000004Q415.8 -2.6 416.35 -3.4000000000000004Q416.9 -4.2 416.9 -5.4V-137.3Q416.9 -137.9 416.6 -138.25Q416.3 -138.6 415.6 -138.6H409.1Q408.6 -138.6 408.4 -138.8Q408.2 -139.0 408.2 -139.3Q408.2 -139.70000000000002 408.45 -139.85000000000002Q408.7 -140.0 409.0 -140.1L437.7 -148.1Q438.6 -148.3 438.95000000000005 -148.35000000000002Q439.3 -148.4 439.7 -148.4Q440.2 -148.4 440.5 -148.10000000000002Q440.8 -147.8 440.8 -147.3ZM604.9 -140.5Q613.3 -140.5 618.15 -133.3Q623.0 -126.10000000000001 623.0 -113.10000000000001Q623.0 -100.30000000000001 618.3 -91.60000000000001Q613.5999999999999 -82.9 604.1999999999999 -81.0L604.5999999999999 -79.9Q619.1999999999999 -83.7 627.8499999999999 -88.55000000000001Q636.5 -93.4 640.3499999999999 -99.80000000000001Q644.1999999999999 -106.2 644.1999999999999 -114.4Q644.1999999999999 -122.60000000000001 639.75 -128.85Q635.3 -135.1 627.0 -138.6Q618.6999999999999 -142.1 607.0 -142.1Q592.1999999999999 -142.1 581.8 -137.15Q571.4 -132.20000000000002 565.95 -123.80000000000001Q560.5 -115.4 560.5 -104.80000000000001Q560.5 -93.0 567.0999999999999 -84.95Q573.6999999999999 -76.9 586.0 -73.10000000000001Q590.0 -71.9 592.8 -69.05000000000001Q595.5999999999999 -66.2 599.5 -61.1L644.8 -2.5Q645.6999999999999 -1.2000000000000002 646.6999999999999 -0.6000000000000001Q647.6999999999999 0.0 649.0999999999999 0.0H681.8Q682.5 0.0 682.8 -0.25Q683.0999999999999 -0.5 683.0999999999999 -0.9Q683.0999999999999 -1.3 682.8 -1.55Q682.5 -1.8 681.8 -1.8Q679.6999999999999 -1.9000000000000001 677.5 -3.0500000000000003Q675.3 -4.2 673.3 -6.800000000000001L624.0 -71.3Q621.4 -74.8 618.5 -76.95Q615.5999999999999 -79.10000000000001 612.4499999999999 -80.45000000000002Q609.3 -81.80000000000001 605.5999999999999 -82.7Q595.0 -85.10000000000001 589.75 -93.75Q584.5 -102.4 584.5 -114.60000000000001Q584.5 -126.0 590.25 -133.25Q596.0 -140.5 604.9 -140.5ZM589.8 -72.10000000000001 589.6999999999999 -73.2Q575.5 -71.10000000000001 565.9 -64.80000000000001Q556.3 -58.5 551.4499999999999 -49.75Q546.5999999999999 -41.0 546.5999999999999 -31.8Q546.5999999999999 -22.5 551.0 -14.85Q555.4 -7.2 564.0999999999999 -2.6Q572.8 2.0 585.5 2.0Q601.0999999999999 2.0 613.0 -4.8500000000000005Q624.9 -11.700000000000001 631.4 -23.6L630.5 -24.700000000000003Q625.6999999999999 -15.9 618.1499999999999 -11.850000000000001Q610.5999999999999 -7.800000000000001 600.5 -7.800000000000001Q592.1999999999999 -7.800000000000001 585.8999999999999 -12.5Q579.5999999999999 -17.2 576.0 -25.4Q572.4 -33.6 572.4 -44.2Q572.4 -51.300000000000004 574.65 -57.45Q576.9 -63.6 580.8 -67.60000000000001Q584.6999999999999 -71.60000000000001 589.8 -72.10000000000001ZM648.9 -36.9 649.5999999999999 -36.0 661.0 -60.0Q664.6999999999999 -67.2 670.0999999999999 -72.35Q675.5 -77.5 683.1999999999999 -80.60000000000001Q683.8 -80.9 684.15 -81.15Q684.5 -81.4 684.5 -81.7Q684.5 -83.10000000000001 683.0 -83.10000000000001H644.8Q644.4 -83.10000000000001 644.0999999999999 -82.9Q643.8 -82.7 643.8 -82.30000000000001Q643.8 -81.9 644.15 -81.7Q644.5 -81.5 644.9 -81.4L653.8 -79.30000000000001Q657.6999999999999 -78.30000000000001 659.6999999999999 -75.5Q661.6999999999999 -72.7 661.6999999999999 -68.80000000000001Q661.6999999999999 -64.9 659.5999999999999 -60.5ZM842.3 -33.7Q842.3 -18.7 829.8499999999999 -9.35Q817.4 0.0 793.4 0.0H726.3Q725.8 0.0 725.55 -0.2Q725.3 -0.4 725.3 -0.6000000000000001Q725.3 -1.2000000000000002 726.5 -1.4000000000000001L734.6 -2.6Q736.7 -3.0 737.6 -3.9000000000000004Q738.5 -4.800000000000001 738.5 -6.7V-134.6Q738.5 -135.8 737.75 -136.4Q737.0 -137.0 734.6 -137.4L726.5 -138.6Q725.3 -138.8 725.3 -139.4Q725.3 -139.6 725.55 -139.8Q725.8 -140.0 726.3 -140.0H775.1Q794.2 -140.0 807.45 -134.95Q820.7 -129.9 827.5 -121.0Q834.3 -112.10000000000001 834.3 -100.4Q834.3 -90.60000000000001 828.95 -82.95Q823.6 -75.3 813.55 -70.95Q803.5 -66.60000000000001 789.5 -66.60000000000001L793.8 -67.2Q808.1 -67.2 819.05 -62.85Q830.0 -58.5 836.15 -50.95Q842.3 -43.400000000000006 842.3 -33.7ZM782.7 -65.60000000000001H763.3V-67.60000000000001H784.0Q792.5 -67.60000000000001 798.2 -71.2Q803.9 -74.8 806.75 -81.80000000000001Q809.6 -88.80000000000001 809.6 -98.80000000000001Q809.6 -110.60000000000001 805.05 -119.45000000000002Q800.5 -128.3 792.6 -133.2Q784.7 -138.1 774.6 -138.1H765.9V-6.0Q765.9 -3.8000000000000003 767.3499999999999 -2.85Q768.8 -1.9000000000000001 771.4 -1.9000000000000001H786.5Q795.3 -1.9000000000000001 801.7 -5.95Q808.1 -10.0 811.5 -17.25Q814.9 -24.5 814.9 -34.1Q814.9 -48.6 806.65 -57.10000000000001Q798.4 -65.60000000000001 782.7 -65.60000000000001ZM885.1999999999999 -147.3V-5.5Q885.1999999999999 -4.2 885.75 -3.4000000000000004Q886.3 -2.6 887.6 -2.4000000000000004L893.1 -1.4000000000000001Q893.6999999999999 -1.4000000000000001 893.9 -1.1500000000000001Q894.1 -0.9 894.1 -0.6000000000000001Q894.1 -0.4 893.9 -0.2Q893.6999999999999 0.0 893.3 0.0H853.0Q852.6999999999999 0.0 852.4499999999999 -0.2Q852.1999999999999 -0.4 852.1999999999999 -0.6000000000000001Q852.1999999999999 -0.9 852.5 -1.1500000000000001Q852.8 -1.4000000000000001 853.5 -1.5L858.9 -2.4000000000000004Q860.1999999999999 -2.6 860.75 -3.4000000000000004Q861.3 -4.2 861.3 -5.4V-137.3Q861.3 -137.9 861.0 -138.25Q860.6999999999999 -138.6 860.0 -138.6H853.5Q853.0 -138.6 852.8 -138.8Q852.6 -139.0 852.6 -139.3Q852.6 -139.70000000000002 852.85 -139.85000000000002Q853.1 -140.0 853.4 -140.1L882.1 -148.1Q883.0 -148.3 883.3499999999999 -148.35000000000002Q883.6999999999999 -148.4 884.1 -148.4Q884.6 -148.4 884.9 -148.10000000000002Q885.1999999999999 -147.8 885.1999999999999 -147.3ZM947.2 -89.80000000000001Q960.4 -89.80000000000001 970.5999999999999 -83.9Q980.8 -78.0 986.5999999999999 -67.55Q992.4 -57.1 992.4 -43.5Q992.4 -30.1 986.45 -19.85Q980.5 -9.600000000000001 970.0 -3.8000000000000007Q959.5 2.0 946.0 2.0Q932.8 2.0 922.65 -3.75Q912.5 -9.5 906.75 -19.75Q901.0 -30.0 901.0 -43.5Q901.0 -57.0 906.9 -67.4Q912.8 -77.80000000000001 923.25 -83.80000000000001Q933.7 -89.80000000000001 947.2 -89.80000000000001ZM952.1 0.30000000000000004Q958.3 -0.30000000000000004 962.25 -5.700000000000001Q966.2 -11.100000000000001 967.55 -21.200000000000003Q968.9 -31.3 967.2 -45.900000000000006Q965.5 -60.7 961.9 -70.25Q958.3 -79.80000000000001 953.0999999999999 -84.25Q947.9 -88.7 941.4 -88.0Q935.0 -87.4 931.1 -81.9Q927.2 -76.4 926.0 -66.30000000000001Q924.8 -56.2 926.5 -41.800000000000004Q928.2 -27.3 931.85 -17.75Q935.5 -8.200000000000001 940.7 -3.6500000000000004Q945.9 0.9 952.1 0.30000000000000004ZM1046.6 -89.80000000000001Q1059.8 -89.80000000000001 1070.0 -83.9Q1080.2 -78.0 1086.0 -67.55Q1091.8 -57.1 1091.8 -43.5Q1091.8 -30.1 1085.85 -19.85Q1079.9 -9.600000000000001 1069.4 -3.8000000000000007Q1058.9 2.0 1045.4 2.0Q1032.2 2.0 1022.05 -3.75Q1011.9 -9.5 1006.15 -19.75Q1000.4 -30.0 1000.4 -43.5Q1000.4 -57.0 1006.3 -67.4Q1012.1999999999999 -77.80000000000001 1022.6499999999999 -83.80000000000001Q1033.1 -89.80000000000001 1046.6 -89.80000000000001ZM1051.5 0.30000000000000004Q1057.7 -0.30000000000000004 1061.65 -5.700000000000001Q1065.6 -11.100000000000001 1066.9499999999998 -21.200000000000003Q1068.3 -31.3 1066.6 -45.900000000000006Q1064.9 -60.7 1061.3000000000002 -70.25Q1057.7 -79.80000000000001 1052.5 -84.25Q1047.3 -88.7 1040.8 -88.0Q1034.4 -87.4 1030.5 -81.9Q1026.6 -76.4 1025.4 -66.30000000000001Q1024.2 -56.2 1025.9 -41.800000000000004Q1027.6 -27.3 1031.25 -17.75Q1034.9 -8.200000000000001 1040.1 -3.6500000000000004Q1045.3 0.9 1051.5 0.30000000000000004ZM1132.1 -88.4V-5.5Q1132.1 -4.2 1132.65 -3.4000000000000004Q1133.2 -2.6 1134.5 -2.4000000000000004L1140.0 -1.4000000000000001Q1141.0 -1.2000000000000002 1141.0 -0.6000000000000001Q1141.0 0.0 1140.2 0.0H1099.8999999999999Q1099.6 0.0 1099.35 -0.2Q1099.1 -0.4 1099.1 -0.6000000000000001Q1099.1 -0.9 1099.3 -1.05Q1099.5 -1.2000000000000002 1100.1 -1.3L1105.8 -2.4000000000000004Q1107.1 -2.6 1107.65 -3.4000000000000004Q1108.2 -4.2 1108.2 -5.4V-78.5Q1108.2 -79.10000000000001 1107.9 -79.45000000000002Q1107.6 -79.80000000000001 1106.8999999999999 -79.80000000000001H1100.3999999999999Q1099.8999999999999 -79.80000000000001 1099.6999999999998 -80.0Q1099.5 -80.2 1099.5 -80.5Q1099.5 -80.80000000000001 1099.75 -80.95000000000002Q1100.0 -81.10000000000001 1100.3 -81.2L1129.0 -89.2Q1129.8999999999999 -89.5 1130.25 -89.55000000000001Q1130.6 -89.60000000000001 1131.0 -89.60000000000001Q1131.5 -89.60000000000001 1131.8 -89.25Q1132.1 -88.9 1132.1 -88.4ZM1129.7 -68.7 1128.7 -69.7 1132.3 -72.9Q1142.7 -82.30000000000001 1150.9 -86.05000000000001Q1159.1 -89.80000000000001 1166.2 -89.80000000000001Q1176.1 -89.80000000000001 1182.4 -83.70000000000002Q1188.7 -77.60000000000001 1188.7 -64.7V-6.1000000000000005Q1188.7 -4.5 1189.45 -3.5Q1190.2 -2.5 1191.8 -2.2L1196.6 -1.3Q1197.6 -1.2000000000000002 1197.6 -0.6000000000000001Q1197.6 0.0 1196.7 0.0H1156.3Q1155.3999999999999 0.0 1155.3999999999999 -0.6000000000000001Q1155.3999999999999 -1.2000000000000002 1156.5 -1.4000000000000001L1162.1 -2.4000000000000004Q1163.8 -2.7 1164.35 -3.6500000000000004Q1164.8999999999999 -4.6000000000000005 1164.8999999999999 -6.1000000000000005V-62.2Q1164.8999999999999 -71.10000000000001 1160.9499999999998 -75.15Q1157.0 -79.2 1150.3 -79.2Q1146.0 -79.2 1141.75 -77.45Q1137.5 -75.7 1133.1 -71.8ZM1185.5 -68.7 1184.5 -69.7 1188.1 -72.9Q1198.5 -82.30000000000001 1206.75 -86.05000000000001Q1215.0 -89.80000000000001 1222.1 -89.80000000000001Q1231.8999999999999 -89.80000000000001 1238.25 -83.70000000000002Q1244.6 -77.60000000000001 1244.6 -64.7V-6.1000000000000005Q1244.6 -4.5 1245.35 -3.5Q1246.1 -2.5 1247.6 -2.2L1252.5 -1.3Q1253.0 -1.3 1253.2 -1.1Q1253.4 -0.9 1253.4 -0.6000000000000001Q1253.4 -0.4 1253.2 -0.2Q1253.0 0.0 1252.6 0.0H1212.2Q1211.2 0.0 1211.2 -0.6000000000000001Q1211.2 -1.2000000000000002 1212.3999999999999 -1.4000000000000001L1218.0 -2.4000000000000004Q1219.6 -2.7 1220.15 -3.6500000000000004Q1220.7 -4.6000000000000005 1220.7 -6.1000000000000005V-62.2Q1220.7 -71.10000000000001 1216.8 -75.15Q1212.8999999999999 -79.2 1206.1 -79.2Q1201.8999999999999 -79.2 1197.6 -77.45Q1193.3 -75.7 1189.0 -71.8Z" fill="#2D2933"/><g transform="translate(0,78) scale(0.02571,-0.02571)" fill="#5A4A78"><path transform="translate(0,0)" d="M150 0V1490H452L967 669Q999 618 1035.0 553.5Q1071 489 1110.0 409.5Q1149 330 1187 233H1157Q1150 317 1144.5 405.5Q1139 494 1136.5 573.5Q1134 653 1134 708V1490H1405V0H1102L637 739Q593 810 554.0 879.0Q515 948 470.0 1035.0Q425 1122 361 1245H399Q405 1136 410.0 1038.5Q415 941 418.5 864.0Q422 787 422 740V0Z"/><path transform="translate(1759,0)" d="M50 0 570 1490H909L1441 0H1148L883 774Q844 894 802.0 1045.5Q760 1197 709 1390H765Q715 1195 674.5 1042.5Q634 890 598 774L342 0ZM353 369V584H1138V369Z"/><path transform="translate(3453,0)" d="M150 0V1490H707Q878 1490 995.0 1430.0Q1112 1370 1172.0 1262.5Q1232 1155 1232 1013Q1232 871 1171.5 766.0Q1111 661 993.0 604.0Q875 547 703 547H305V768H668Q769 768 833.0 796.5Q897 825 928.0 880.0Q959 935 959 1013Q959 1093 928.0 1149.5Q897 1206 832.5 1236.0Q768 1266 666 1266H417V0ZM988 0 626 676H918L1287 0Z"/><path transform="translate(4993,0)" d="M50 0 570 1490H909L1441 0H1148L883 774Q844 894 802.0 1045.5Q760 1197 709 1390H765Q715 1195 674.5 1042.5Q634 890 598 774L342 0ZM353 369V584H1138V369Z"/><path transform="translate(6687,0)" d="M150 0V1490H552L835 721Q850 678 868.5 610.5Q887 543 906.5 465.0Q926 387 943.5 312.5Q961 238 973 181H919Q931 237 948.5 310.5Q966 384 985.5 462.5Q1005 541 1023.5 609.0Q1042 677 1056 721L1336 1490H1739V0H1473V752Q1473 800 1474.0 868.0Q1475 936 1477.0 1014.0Q1479 1092 1481.0 1171.5Q1483 1251 1483 1323H1502Q1482 1244 1458.5 1161.5Q1435 1079 1412.0 1001.5Q1389 924 1368.5 859.0Q1348 794 1333 752L1058 0H831L552 752Q537 794 516.5 857.5Q496 921 472.5 998.0Q449 1075 425.5 1158.5Q402 1242 379 1323H401Q402 1256 404.0 1177.5Q406 1099 407.5 1020.0Q409 941 410.5 871.5Q412 802 412 752V0Z"/><path transform="translate(8780,0)" d="M50 0 570 1490H909L1441 0H1148L883 774Q844 894 802.0 1045.5Q760 1197 709 1390H765Q715 1195 674.5 1042.5Q634 890 598 774L342 0ZM353 369V584H1138V369Z"/><path transform="translate(10474,0)" d="M83 1265V1490H1269V1265H810V0H543V1265Z"/><path transform="translate(12030,0)" d="M50 0 570 1490H909L1441 0H1148L883 774Q844 894 802.0 1045.5Q760 1197 709 1390H765Q715 1195 674.5 1042.5Q634 890 598 774L342 0ZM353 369V584H1138V369Z"/><path transform="translate(14444,0)" d="M150 0V1490H720Q881 1490 988.0 1439.0Q1095 1388 1148.0 1301.0Q1201 1214 1201 1103Q1201 1012 1166.0 947.5Q1131 883 1072.5 843.0Q1014 803 941 786V771Q1020 767 1093.0 723.0Q1166 679 1212.5 599.0Q1259 519 1259 406Q1259 290 1203.0 198.0Q1147 106 1034.5 53.0Q922 0 751 0ZM417 223H709Q857 223 922.5 280.0Q988 337 988 426Q988 493 955.0 546.5Q922 600 861.5 631.0Q801 662 718 662H417ZM417 855H686Q757 855 813.0 881.0Q869 907 901.5 955.0Q934 1003 934 1069Q934 1156 873.0 1212.0Q812 1268 692 1268H417Z"/><path transform="translate(15998,0)" d="M150 0V1490H1118V1265H417V863H1066V641H417V225H1122V0Z"/><path transform="translate(17442,0)" d="M150 0V1490H452L967 669Q999 618 1035.0 553.5Q1071 489 1110.0 409.5Q1149 330 1187 233H1157Q1150 317 1144.5 405.5Q1139 494 1136.5 573.5Q1134 653 1134 708V1490H1405V0H1102L637 739Q593 810 554.0 879.0Q515 948 470.0 1035.0Q425 1122 361 1245H399Q405 1136 410.0 1038.5Q415 941 418.5 864.0Q422 787 422 740V0Z"/><path transform="translate(19201,0)" d="M785 -20Q589 -20 435.0 71.0Q281 162 192.0 333.0Q103 504 103 744Q103 985 192.5 1156.5Q282 1328 436.5 1419.0Q591 1510 785 1510Q907 1510 1013.5 1475.5Q1120 1441 1203.5 1374.5Q1287 1308 1341.0 1212.0Q1395 1116 1413 994H1144Q1131 1061 1099.5 1112.0Q1068 1163 1021.0 1198.5Q974 1234 915.0 1252.5Q856 1271 789 1271Q667 1271 572.5 1209.5Q478 1148 424.5 1030.5Q371 913 371 744Q371 573 425.0 456.0Q479 339 573.5 279.0Q668 219 788 219Q855 219 914.0 237.5Q973 256 1020.5 291.5Q1068 327 1100.0 378.5Q1132 430 1144 496H1414Q1399 389 1348.5 295.5Q1298 202 1216.0 131.0Q1134 60 1025.5 20.0Q917 -20 785 -20Z"/><path transform="translate(20914,0)" d="M150 0V1490H417V874H1110V1490H1377V0H1110V649H417V0Z"/><path transform="translate(23365,0)" d="M150 0V1490H720Q881 1490 988.0 1439.0Q1095 1388 1148.0 1301.0Q1201 1214 1201 1103Q1201 1012 1166.0 947.5Q1131 883 1072.5 843.0Q1014 803 941 786V771Q1020 767 1093.0 723.0Q1166 679 1212.5 599.0Q1259 519 1259 406Q1259 290 1203.0 198.0Q1147 106 1034.5 53.0Q922 0 751 0ZM417 223H709Q857 223 922.5 280.0Q988 337 988 426Q988 493 955.0 546.5Q922 600 861.5 631.0Q801 662 718 662H417ZM417 855H686Q757 855 813.0 881.0Q869 907 901.5 955.0Q934 1003 934 1069Q934 1156 873.0 1212.0Q812 1268 692 1268H417Z"/><path transform="translate(24919,0)" d="M788 -20Q592 -20 437.0 71.0Q282 162 192.5 333.0Q103 504 103 744Q103 985 192.5 1156.5Q282 1328 437.0 1419.0Q592 1510 788 1510Q983 1510 1137.5 1419.0Q1292 1328 1381.5 1156.5Q1471 985 1471 744Q1471 504 1381.5 332.5Q1292 161 1137.5 70.5Q983 -20 788 -20ZM788 219Q909 219 1002.5 279.5Q1096 340 1149.0 457.5Q1202 575 1202 744Q1202 915 1149.0 1032.5Q1096 1150 1002.5 1210.5Q909 1271 788 1271Q666 1271 572.0 1210.0Q478 1149 424.5 1031.5Q371 914 371 744Q371 575 424.5 458.0Q478 341 572.0 280.0Q666 219 788 219Z"/><path transform="translate(26697,0)" d="M83 1265V1490H1269V1265H810V0H543V1265Z"/><path transform="translate(28253,0)" d="M50 0 570 1490H909L1441 0H1148L883 774Q844 894 802.0 1045.5Q760 1197 709 1390H765Q715 1195 674.5 1042.5Q634 890 598 774L342 0ZM353 369V584H1138V369Z"/><path transform="translate(29947,0)" d="M150 0V1490H452L967 669Q999 618 1035.0 553.5Q1071 489 1110.0 409.5Q1149 330 1187 233H1157Q1150 317 1144.5 405.5Q1139 494 1136.5 573.5Q1134 653 1134 708V1490H1405V0H1102L637 739Q593 810 554.0 879.0Q515 948 470.0 1035.0Q425 1122 361 1245H399Q405 1136 410.0 1038.5Q415 941 418.5 864.0Q422 787 422 740V0Z"/><path transform="translate(31706,0)" d="M417 1490V0H150V1490Z"/><path transform="translate(32477,0)" d="M785 -20Q589 -20 435.0 71.0Q281 162 192.0 333.0Q103 504 103 744Q103 985 192.5 1156.5Q282 1328 436.5 1419.0Q591 1510 785 1510Q907 1510 1013.5 1475.5Q1120 1441 1203.5 1374.5Q1287 1308 1341.0 1212.0Q1395 1116 1413 994H1144Q1131 1061 1099.5 1112.0Q1068 1163 1021.0 1198.5Q974 1234 915.0 1252.5Q856 1271 789 1271Q667 1271 572.5 1209.5Q478 1148 424.5 1030.5Q371 913 371 744Q371 573 425.0 456.0Q479 339 573.5 279.0Q668 219 788 219Q855 219 914.0 237.5Q973 256 1020.5 291.5Q1068 327 1100.0 378.5Q1132 430 1144 496H1414Q1399 389 1348.5 295.5Q1298 202 1216.0 131.0Q1134 60 1025.5 20.0Q917 -20 785 -20Z"/><path transform="translate(34190,0)" d="M50 0 570 1490H909L1441 0H1148L883 774Q844 894 802.0 1045.5Q760 1197 709 1390H765Q715 1195 674.5 1042.5Q634 890 598 774L342 0ZM353 369V584H1138V369Z"/><path transform="translate(35884,0)" d="M150 0V1490H417V225H1075V0Z"/><path transform="translate(37246,0)" d="M673 -23Q500 -23 372.5 31.0Q245 85 173.0 188.0Q101 291 95 438H358Q365 360 407.0 308.0Q449 256 518.0 230.5Q587 205 671 205Q759 205 826.5 232.0Q894 259 932.0 307.5Q970 356 970 420Q970 478 936.5 516.0Q903 554 842.5 580.5Q782 607 701 627L532 671Q345 719 240.5 816.0Q136 913 136 1071Q136 1203 207.0 1302.0Q278 1401 401.0 1455.5Q524 1510 680 1510Q839 1510 959.0 1455.0Q1079 1400 1146.5 1303.0Q1214 1206 1217 1082H958Q948 1178 872.5 1230.5Q797 1283 676 1283Q592 1283 531.5 1257.5Q471 1232 438.5 1188.0Q406 1144 406 1087Q406 1025 444.5 985.0Q483 945 541.5 921.0Q600 897 660 882L799 846Q882 826 960.0 793.0Q1038 760 1100.5 709.5Q1163 659 1200.0 587.0Q1237 515 1237 418Q1237 287 1170.0 187.5Q1103 88 977.0 32.5Q851 -23 673 -23Z"/></g></svg>