<svg xmlns="http://www.w3.org/2000/svg" viewBox="-138.99 -190.40 1434.39 310.83" role="img" aria-label="Bench &amp; Bloom"><title>Bench &amp; Bloom</title><g transform="matrix(1.5935,0,0,1.5935,-167.11,-179.20)">
<g fill="#2D2933"><ellipse cx="60" cy="34" rx="3" ry="5"/><ellipse cx="60" cy="48" rx="3.4" ry="6"/><ellipse cx="60" cy="62" rx="3.6" ry="6.2"/><ellipse cx="60" cy="76" rx="3.4" ry="6"/></g>
<g fill="#2D2933"><ellipse cx="53" cy="42" rx="3.2" ry="6" transform="rotate(-24 53 42)"/><ellipse cx="67" cy="42" rx="3.2" ry="6" transform="rotate(24 67 42)"/><ellipse cx="51" cy="55" rx="3.6" ry="6.5" transform="rotate(-27 51 55)"/><ellipse cx="69" cy="55" rx="3.6" ry="6.5" transform="rotate(27 69 55)"/><ellipse cx="51" cy="68" rx="3.6" ry="6.5" transform="rotate(-27 51 68)"/><ellipse cx="69" cy="68" rx="3.6" ry="6.5" transform="rotate(27 69 68)"/><ellipse cx="54" cy="81" rx="3.2" ry="6" transform="rotate(-22 54 81)"/><ellipse cx="66" cy="81" rx="3.2" ry="6" transform="rotate(22 66 81)"/></g>
<path d="M60 88 C60 110 60 130 60 150" stroke="#2D2933" stroke-width="2.4" fill="none" stroke-linecap="round"/>
<path d="M60 116 C54 114 49 118 46 126" stroke="#2D2933" stroke-width="2.2" fill="none" stroke-linecap="round"/>
<path d="M60 116 C66 114 71 118 74 126" stroke="#2D2933" stroke-width="2.2" fill="none" stroke-linecap="round"/></g><path d="M123.80000000000001 -33.7Q123.80000000000001 -18.7 111.35000000000001 -9.35Q98.9 0.0 74.9 0.0H7.800000000000001Q7.300000000000001 0.0 7.050000000000001 -0.2Q6.800000000000001 -0.4 6.800000000000001 -0.6000000000000001Q6.800000000000001 -1.2000000000000002 8.0 -1.4000000000000001L16.1 -2.6Q18.2 -3.0 19.1 -3.9000000000000004Q20.0 -4.800000000000001 20.0 -6.7V-134.6Q20.0 -135.8 19.25 -136.4Q18.5 -137.0 16.1 -137.4L8.0 -138.6Q6.800000000000001 -138.8 6.800000000000001 -139.4Q6.800000000000001 -139.6 7.050000000000001 -139.8Q7.300000000000001 -140.0 7.800000000000001 -140.0H56.6Q75.7 -140.0 88.95 -134.95Q102.2 -129.9 109.0 -121.0Q115.80000000000001 -112.10000000000001 115.80000000000001 -100.4Q115.80000000000001 -90.60000000000001 110.45000000000002 -82.95Q105.10000000000001 -75.3 95.05000000000001 -70.95Q85.0 -66.60000000000001 71.0 -66.60000000000001L75.3 -67.2Q89.60000000000001 -67.2 100.55000000000001 -62.85Q111.5 -58.5 117.65 -50.95Q123.80000000000001 -43.400000000000006 123.80000000000001 -33.7ZM64.2 -65.60000000000001H44.800000000000004V-67.60000000000001H65.5Q74.0 -67.60000000000001 79.7 -71.2Q85.4 -74.8 88.25 -81.80000000000001Q91.10000000000001 -88.80000000000001 91.10000000000001 -98.80000000000001Q91.10000000000001 -110.60000000000001 86.55000000000001 -119.45000000000002Q82.0 -128.3 74.1 -133.2Q66.2 -138.1 56.1 -138.1H47.400000000000006V-6.0Q47.400000000000006 -3.8000000000000003 48.85000000000001 -2.85Q50.300000000000004 -1.9000000000000001 52.900000000000006 -1.9000000000000001H68.0Q76.80000000000001 -1.9000000000000001 83.20000000000002 -5.95Q89.60000000000001 -10.0 93.0 -17.25Q96.4 -24.5 96.4 -34.1Q96.4 -48.6 88.15 -57.10000000000001Q79.9 -65.60000000000001 64.2 -65.60000000000001ZM213.4 -51.7Q213.4 -50.800000000000004 212.85000000000002 -50.300000000000004Q212.3 -49.800000000000004 211.10000000000002 -49.800000000000004H149.20000000000002V-51.5H187.9Q189.60000000000002 -51.5 189.60000000000002 -53.400000000000006Q189.60000000000002 -71.2 184.85000000000002 -79.7Q180.10000000000002 -88.2 173.3 -88.2Q167.70000000000002 -88.2 163.60000000000002 -84.35Q159.5 -80.5 157.25 -72.6Q155.0 -64.7 155.0 -52.5Q155.0 -31.900000000000002 163.60000000000002 -21.6Q172.20000000000002 -11.3 186.20000000000002 -11.3Q196.5 -11.3 203.65 -17.05Q210.8 -22.8 211.60000000000002 -32.6Q211.70000000000002 -33.0 211.90000000000003 -33.150000000000006Q212.10000000000002 -33.300000000000004 212.20000000000002 -33.300000000000004Q212.4 -33.300000000000004 212.60000000000002 -33.1Q212.8 -32.9 212.8 -32.4Q212.20000000000002 -22.5 207.05 -14.75Q201.9 -7.0 193.45 -2.5Q185.0 2.0 174.5 2.0Q162.10000000000002 2.0 152.75 -3.5Q143.4 -9.0 138.10000000000002 -18.950000000000003Q132.8 -28.900000000000002 132.8 -42.2Q132.8 -56.400000000000006 138.15 -67.10000000000001Q143.5 -77.80000000000001 153.3 -83.80000000000001Q163.10000000000002 -89.80000000000001 176.20000000000002 -89.80000000000001Q187.5 -89.80000000000001 195.85 -84.85000000000001Q204.2 -79.9 208.8 -71.30000000000001Q213.4 -62.7 213.4 -51.7ZM253.10000000000002 -88.4V-5.5Q253.10000000000002 -4.2 253.65000000000003 -3.4000000000000004Q254.20000000000002 -2.6 255.5 -2.4000000000000004L261.0 -1.4000000000000001Q262.0 -1.2000000000000002 262.0 -0.6000000000000001Q262.0 0.0 261.20000000000005 0.0H220.9Q220.60000000000002 0.0 220.35000000000002 -0.2Q220.10000000000002 -0.4 220.10000000000002 -0.6000000000000001Q220.10000000000002 -0.9 220.3 -1.05Q220.5 -1.2000000000000002 221.10000000000002 -1.3L226.8 -2.4000000000000004Q228.10000000000002 -2.6 228.65000000000003 -3.4000000000000004Q229.20000000000002 -4.2 229.20000000000002 -5.4V-78.5Q229.20000000000002 -79.10000000000001 228.90000000000003 -79.45000000000002Q228.60000000000002 -79.80000000000001 227.9 -79.80000000000001H221.4Q220.9 -79.80000000000001 220.7 -80.0Q220.5 -80.2 220.5 -80.5Q220.5 -80.80000000000001 220.75 -80.95000000000002Q221.0 -81.10000000000001 221.3 -81.2L250.0 -89.2Q250.9 -89.5 251.25 -89.55000000000001Q251.60000000000002 -89.60000000000001 252.0 -89.60000000000001Q252.5 -89.60000000000001 252.8 -89.25Q253.10000000000002 -88.9 253.10000000000002 -88.4ZM251.0 -68.7 250.0 -69.7 253.60000000000002 -72.9Q264.0 -82.30000000000001 272.20000000000005 -86.05000000000001Q280.40000000000003 -89.80000000000001 287.5 -89.80000000000001Q297.40000000000003 -89.80000000000001 303.70000000000005 -83.70000000000002Q310.0 -77.60000000000001 310.0 -64.7V-6.1000000000000005Q310.0 -4.5 310.75 -3.5Q311.5 -2.5 313.1 -2.2L317.90000000000003 -1.3Q318.5 -1.3 318.70000000000005 -1.1Q318.90000000000003 -0.9 318.90000000000003 -0.6000000000000001Q318.90000000000003 -0.4 318.70000000000005 -0.2Q318.5 0.0 318.0 0.0H277.6Q276.70000000000005 0.0 276.70000000000005 -0.6000000000000001Q276.70000000000005 -1.2000000000000002 277.8 -1.4000000000000001L283.40000000000003 -2.4000000000000004Q285.1 -2.7 285.65000000000003 -3.6500000000000004Q286.20000000000005 -4.6000000000000005 286.20000000000005 -6.1000000000000005V-62.2Q286.20000000000005 -71.10000000000001 282.25 -75.15Q278.3 -79.2 271.6 -79.2Q267.40000000000003 -79.2 263.1 -77.45Q258.8 -75.7 254.4 -71.8ZM401.70000000000005 -66.3Q401.70000000000005 -61.0 398.65000000000003 -57.8Q395.6 -54.6 390.40000000000003 -54.6Q385.0 -54.6 381.9 -57.900000000000006Q378.8 -61.2 378.8 -67.4V-74.7Q378.8 -81.0 375.45000000000005 -84.55000000000001Q372.1 -88.10000000000001 366.40000000000003 -88.10000000000001Q360.5 -88.10000000000001 356.05 -83.9Q351.6 -79.7 349.20000000000005 -71.95Q346.8 -64.2 346.8 -53.6Q346.8 -40.400000000000006 350.6 -31.35Q354.40000000000003 -22.3 360.95000000000005 -17.65Q367.5 -13.0 375.8 -13.0Q384.90000000000003 -13.0 391.40000000000003 -17.1Q397.90000000000003 -21.200000000000003 400.20000000000005 -29.900000000000002Q400.3 -30.3 400.5 -30.450000000000003Q400.70000000000005 -30.6 400.90000000000003 -30.5Q401.20000000000005 -30.5 401.30000000000007 -30.25Q401.40000000000003 -30.0 401.3 -29.6Q399.40000000000003 -19.6 394.25 -12.55Q389.1 -5.5 381.35 -1.7999999999999998Q373.6 1.9000000000000001 363.70000000000005 1.9000000000000001Q352.40000000000003 1.9000000000000001 343.45000000000005 -3.0999999999999996Q334.5 -8.1 329.3 -17.900000000000002Q324.1 -27.700000000000003 324.1 -42.0Q324.1 -55.7 329.75 -66.45Q335.40000000000003 -77.2 345.35 -83.5Q355.3 -89.80000000000001 368.3 -89.80000000000001Q379.1 -89.80000000000001 386.5 -86.70000000000002Q393.90000000000003 -83.60000000000001 397.80000000000007 -78.30000000000001Q401.70000000000005 -73.0 401.70000000000005 -66.3ZM438.7 -68.7 437.7 -69.7 441.3 -72.9Q451.7 -82.30000000000001 459.9 -86.05000000000001Q468.1 -89.80000000000001 475.2 -89.80000000000001Q485.1 -89.80000000000001 491.4 -83.70000000000002Q497.7 -77.60000000000001 497.7 -64.7V-6.1000000000000005Q497.7 -4.5 498.45 -3.5Q499.2 -2.5 500.8 -2.2L505.6 -1.3Q506.2 -1.3 506.4 -1.1Q506.6 -0.9 506.6 -0.6000000000000001Q506.6 -0.4 506.4 -0.2Q506.2 0.0 505.7 0.0H465.3Q464.4 0.0 464.4 -0.6000000000000001Q464.4 -1.2000000000000002 465.5 -1.4000000000000001L471.1 -2.4000000000000004Q472.8 -2.7 473.35 -3.6500000000000004Q473.9 -4.6000000000000005 473.9 -6.1000000000000005V-62.2Q473.9 -71.10000000000001 469.95 -75.15Q466.0 -79.2 459.3 -79.2Q455.1 -79.2 450.8 -77.45Q446.5 -75.7 442.1 -71.8ZM440.8 -147.3V-5.5Q440.8 -4.2 441.35 -3.4000000000000004Q441.9 -2.6 443.2 -2.4000000000000004L448.7 -1.4000000000000001Q449.7 -1.2000000000000002 449.7 -0.6000000000000001Q449.7 0.0 448.9 0.0H408.6Q408.3 0.0 408.05 -0.2Q407.8 -0.4 407.8 -0.6000000000000001Q407.8 -0.9 408.1 -1.1500000000000001Q408.4 -1.4000000000000001 409.1 -1.5L414.5 -2.4000000000000004Q415.8 -2.6 416.35 -3.4000000000000004Q416.9 -4.2 416.9 -5.4V-137.3Q416.9 -137.9 416.6 -138.25Q416.3 -138.6 415.6 -138.6H409.1Q408.6 -138.6 408.4 -138.8Q408.2 -139.0 408.2 -139.3Q408.2 -139.70000000000002 408.45 -139.85000000000002Q408.7 -140.0 409.0 -140.1L437.7 -148.1Q438.6 -148.3 438.95000000000005 -148.35000000000002Q439.3 -148.4 439.7 -148.4Q440.2 -148.4 440.5 -148.10000000000002Q440.8 -147.8 440.8 -147.3ZM604.9 -140.5Q613.3 -140.5 618.15 -133.3Q623.0 -126.10000000000001 623.0 -113.10000000000001Q623.0 -100.30000000000001 618.3 -91.60000000000001Q613.5999999999999 -82.9 604.1999999999999 -81.0L604.5999999999999 -79.9Q619.1999999999999 -83.7 627.8499999999999 -88.55000000000001Q636.5 -93.4 640.3499999999999 -99.80000000000001Q644.1999999999999 -106.2 644.1999999999999 -114.4Q644.1999999999999 -122.60000000000001 639.75 -128.85Q635.3 -135.1 627.0 -138.6Q618.6999999999999 -142.1 607.0 -142.1Q592.1999999999999 -142.1 581.8 -137.15Q571.4 -132.20000000000002 565.95 -123.80000000000001Q560.5 -115.4 560.5 -104.80000000000001Q560.5 -93.0 567.0999999999999 -84.95Q573.6999999999999 -76.9 586.0 -73.10000000000001Q590.0 -71.9 592.8 -69.05000000000001Q595.5999999999999 -66.2 599.5 -61.1L644.8 -2.5Q645.6999999999999 -1.2000000000000002 646.6999999999999 -0.6000000000000001Q647.6999999999999 0.0 649.0999999999999 0.0H681.8Q682.5 0.0 682.8 -0.25Q683.0999999999999 -0.5 683.0999999999999 -0.9Q683.0999999999999 -1.3 682.8 -1.55Q682.5 -1.8 681.8 -1.8Q679.6999999999999 -1.9000000000000001 677.5 -3.0500000000000003Q675.3 -4.2 673.3 -6.800000000000001L624.0 -71.3Q621.4 -74.8 618.5 -76.95Q615.5999999999999 -79.10000000000001 612.4499999999999 -80.45000000000002Q609.3 -81.80000000000001 605.5999999999999 -82.7Q595.0 -85.10000000000001 589.75 -93.75Q584.5 -102.4 584.5 -114.60000000000001Q584.5 -126.0 590.25 -133.25Q596.0 -140.5 604.9 -140.5ZM589.8 -72.10000000000001 589.6999999999999 -73.2Q575.5 -71.10000000000001 565.9 -64.80000000000001Q556.3 -58.5 551.4499999999999 -49.75Q546.5999999999999 -41.0 546.5999999999999 -31.8Q546.5999999999999 -22.5 551.0 -14.85Q555.4 -7.2 564.0999999999999 -2.6Q572.8 2.0 585.5 2.0Q601.0999999999999 2.0 613.0 -4.8500000000000005Q624.9 -11.700000000000001 631.4 -23.6L630.5 -24.700000000000003Q625.6999999999999 -15.9 618.1499999999999 -11.850000000000001Q610.5999999999999 -7.800000000000001 600.5 -7.800000000000001Q592.1999999999999 -7.800000000000001 585.8999999999999 -12.5Q579.5999999999999 -17.2 576.0 -25.4Q572.4 -33.6 572.4 -44.2Q572.4 -51.300000000000004 574.65 -57.45Q576.9 -63.6 580.8 -67.60000000000001Q584.6999999999999 -71.60000000000001 589.8 -72.10000000000001ZM648.9 -36.9 649.5999999999999 -36.0 661.0 -60.0Q664.6999999999999 -67.2 670.0999999999999 -72.35Q675.5 -77.5 683.1999999999999 -80.60000000000001Q683.8 -80.9 684.15 -81.15Q684.5 -81.4 684.5 -81.7Q684.5 -83.10000000000001 683.0 -83.10000000000001H644.8Q644.4 -83.10000000000001 644.0999999999999 -82.9Q643.8 -82.7 643.8 -82.30000000000001Q643.8 -81.9 644.15 -81.7Q644.5 -81.5 644.9 -81.4L653.8 -79.30000000000001Q657.6999999999999 -78.30000000000001 659.6999999999999 -75.5Q661.6999999999999 -72.7 661.6999999999999 -68.80000000000001Q661.6999999999999 -64.9 659.5999999999999 -60.5ZM842.3 -33.7Q842.3 -18.7 829.8499999999999 -9.35Q817.4 0.0 793.4 0.0H726.3Q725.8 0.0 725.55 -0.2Q725.3 -0.4 725.3 -0.6000000000000001Q725.3 -1.2000000000000002 726.5 -1.4000000000000001L734.6 -2.6Q736.7 -3.0 737.6 -3.9000000000000004Q738.5 -4.800000000000001 738.5 -6.7V-134.6Q738.5 -135.8 737.75 -136.4Q737.0 -137.0 734.6 -137.4L726.5 -138.6Q725.3 -138.8 725.3 -139.4Q725.3 -139.6 725.55 -139.8Q725.8 -140.0 726.3 -140.0H775.1Q794.2 -140.0 807.45 -134.95Q820.7 -129.9 827.5 -121.0Q834.3 -112.10000000000001 834.3 -100.4Q834.3 -90.60000000000001 828.95 -82.95Q823.6 -75.3 813.55 -70.95Q803.5 -66.60000000000001 789.5 -66.60000000000001L793.8 -67.2Q808.1 -67.2 819.05 -62.85Q830.0 -58.5 836.15 -50.95Q842.3 -43.400000000000006 842.3 -33.7ZM782.7 -65.60000000000001H763.3V-67.60000000000001H784.0Q792.5 -67.60000000000001 798.2 -71.2Q803.9 -74.8 806.75 -81.80000000000001Q809.6 -88.80000000000001 809.6 -98.80000000000001Q809.6 -110.60000000000001 805.05 -119.45000000000002Q800.5 -128.3 792.6 -133.2Q784.7 -138.1 774.6 -138.1H765.9V-6.0Q765.9 -3.8000000000000003 767.3499999999999 -2.85Q768.8 -1.9000000000000001 771.4 -1.9000000000000001H786.5Q795.3 -1.9000000000000001 801.7 -5.95Q808.1 -10.0 811.5 -17.25Q814.9 -24.5 814.9 -34.1Q814.9 -48.6 806.65 -57.10000000000001Q798.4 -65.60000000000001 782.7 -65.60000000000001ZM885.1999999999999 -147.3V-5.5Q885.1999999999999 -4.2 885.75 -3.4000000000000004Q886.3 -2.6 887.6 -2.4000000000000004L893.1 -1.4000000000000001Q893.6999999999999 -1.4000000000000001 893.9 -1.1500000000000001Q894.1 -0.9 894.1 -0.6000000000000001Q894.1 -0.4 893.9 -0.2Q893.6999999999999 0.0 893.3 0.0H853.0Q852.6999999999999 0.0 852.4499999999999 -0.2Q852.1999999999999 -0.4 852.1999999999999 -0.6000000000000001Q852.1999999999999 -0.9 852.5 -1.1500000000000001Q852.8 -1.4000000000000001 853.5 -1.5L858.9 -2.4000000000000004Q860.1999999999999 -2.6 860.75 -3.4000000000000004Q861.3 -4.2 861.3 -5.4V-137.3Q861.3 -137.9 861.0 -138.25Q860.6999999999999 -138.6 860.0 -138.6H853.5Q853.0 -138.6 852.8 -138.8Q852.6 -139.0 852.6 -139.3Q852.6 -139.70000000000002 852.85 -139.85000000000002Q853.1 -140.0 853.4 -140.1L882.1 -148.1Q883.0 -148.3 883.3499999999999 -148.35000000000002Q883.6999999999999 -148.4 884.1 -148.4Q884.6 -148.4 884.9 -148.10000000000002Q885.1999999999999 -147.8 885.1999999999999 -147.3ZM947.2 -89.80000000000001Q960.4 -89.80000000000001 970.5999999999999 -83.9Q980.8 -78.0 986.5999999999999 -67.55Q992.4 -57.1 992.4 -43.5Q992.4 -30.1 986.45 -19.85Q980.5 -9.600000000000001 970.0 -3.8000000000000007Q959.5 2.0 946.0 2.0Q932.8 2.0 922.65 -3.75Q912.5 -9.5 906.75 -19.75Q901.0 -30.0 901.0 -43.5Q901.0 -57.0 906.9 -67.4Q912.8 -77.80000000000001 923.25 -83.80000000000001Q933.7 -89.80000000000001 947.2 -89.80000000000001ZM952.1 0.30000000000000004Q958.3 -0.30000000000000004 962.25 -5.700000000000001Q966.2 -11.100000000000001 967.55 -21.200000000000003Q968.9 -31.3 967.2 -45.900000000000006Q965.5 -60.7 961.9 -70.25Q958.3 -79.80000000000001 953.0999999999999 -84.25Q947.9 -88.7 941.4 -88.0Q935.0 -87.4 931.1 -81.9Q927.2 -76.4 926.0 -66.30000000000001Q924.8 -56.2 926.5 -41.800000000000004Q928.2 -27.3 931.85 -17.75Q935.5 -8.200000000000001 940.7 -3.6500000000000004Q945.9 0.9 952.1 0.30000000000000004ZM1046.6 -89.80000000000001Q1059.8 -89.80000000000001 1070.0 -83.9Q1080.2 -78.0 1086.0 -67.55Q1091.8 -57.1 1091.8 -43.5Q1091.8 -30.1 1085.85 -19.85Q1079.9 -9.600000000000001 1069.4 -3.8000000000000007Q1058.9 2.0 1045.4 2.0Q1032.2 2.0 1022.05 -3.75Q1011.9 -9.5 1006.15 -19.75Q1000.4 -30.0 1000.4 -43.5Q1000.4 -57.0 1006.3 -67.4Q1012.1999999999999 -77.80000000000001 1022.6499999999999 -83.80000000000001Q1033.1 -89.80000000000001 1046.6 -89.80000000000001ZM1051.5 0.30000000000000004Q1057.7 -0.30000000000000004 1061.65 -5.700000000000001Q1065.6 -11.100000000000001 1066.9499999999998 -21.200000000000003Q1068.3 -31.3 1066.6 -45.900000000000006Q1064.9 -60.7 1061.3000000000002 -70.25Q1057.7 -79.80000000000001 1052.5 -84.25Q1047.3 -88.7 1040.8 -88.0Q1034.4 -87.4 1030.5 -81.9Q1026.6 -76.4 1025.4 -66.30000000000001Q1024.2 -56.2 1025.9 -41.800000000000004Q1027.6 -27.3 1031.25 -17.75Q1034.9 -8.200000000000001 1040.1 -3.6500000000000004Q1045.3 0.9 1051.5 0.30000000000000004ZM1132.1 -88.4V-5.5Q1132.1 -4.2 1132.65 -3.4000000000000004Q1133.2 -2.6 1134.5 -2.4000000000000004L1140.0 -1.4000000000000001Q1141.0 -1.2000000000000002 1141.0 -0.6000000000000001Q1141.0 0.0 1140.2 0.0H1099.8999999999999Q1099.6 0.0 1099.35 -0.2Q1099.1 -0.4 1099.1 -0.6000000000000001Q1099.1 -0.9 1099.3 -1.05Q1099.5 -1.2000000000000002 1100.1 -1.3L1105.8 -2.4000000000000004Q1107.1 -2.6 1107.65 -3.4000000000000004Q1108.2 -4.2 1108.2 -5.4V-78.5Q1108.2 -79.10000000000001 1107.9 -79.45000000000002Q1107.6 -79.80000000000001 1106.8999999999999 -79.80000000000001H1100.3999999999999Q1099.8999999999999 -79.80000000000001 1099.6999999999998 -80.0Q1099.5 -80.2 1099.5 -80.5Q1099.5 -80.80000000000001 1099.75 -80.95000000000002Q1100.0 -81.10000000000001 1100.3 -81.2L1129.0 -89.2Q1129.8999999999999 -89.5 1130.25 -89.55000000000001Q1130.6 -89.60000000000001 1131.0 -89.60000000000001Q1131.5 -89.60000000000001 1131.8 -89.25Q1132.1 -88.9 1132.1 -88.4ZM1129.7 -68.7 1128.7 -69.7 1132.3 -72.9Q1142.7 -82.30000000000001 1150.9 -86.05000000000001Q1159.1 -89.80000000000001 1166.2 -89.80000000000001Q1176.1 -89.80000000000001 1182.4 -83.70000000000002Q1188.7 -77.60000000000001 1188.7 -64.7V-6.1000000000000005Q1188.7 -4.5 1189.45 -3.5Q1190.2 -2.5 1191.8 -2.2L1196.6 -1.3Q1197.6 -1.2000000000000002 1197.6 -0.6000000000000001Q1197.6 0.0 1196.7 0.0H1156.3Q1155.3999999999999 0.0 1155.3999999999999 -0.6000000000000001Q1155.3999999999999 -1.2000000000000002 1156.5 -1.4000000000000001L1162.1 -2.4000000000000004Q1163.8 -2.7 1164.35 -3.6500000000000004Q1164.8999999999999 -4.6000000000000005 1164.8999999999999 -6.1000000000000005V-62.2Q1164.8999999999999 -71.10000000000001 1160.9499999999998 -75.15Q1157.0 -79.2 1150.3 -79.2Q1146.0 -79.2 1141.75 -77.45Q1137.5 -75.7 1133.1 -71.8ZM1185.5 -68.7 1184.5 -69.7 1188.1 -72.9Q1198.5 -82.30000000000001 1206.75 -86.05000000000001Q1215.0 -89.80000000000001 1222.1 -89.80000000000001Q1231.8999999999999 -89.80000000000001 1238.25 -83.70000000000002Q1244.6 -77.60000000000001 1244.6 -64.7V-6.1000000000000005Q1244.6 -4.5 1245.35 -3.5Q1246.1 -2.5 1247.6 -2.2L1252.5 -1.3Q1253.0 -1.3 1253.2 -1.1Q1253.4 -0.9 1253.4 -0.6000000000000001Q1253.4 -0.4 1253.2 -0.2Q1253.0 0.0 1252.6 0.0H1212.2Q1211.2 0.0 1211.2 -0.6000000000000001Q1211.2 -1.2000000000000002 1212.3999999999999 -1.4000000000000001L1218.0 -2.4000000000000004Q1219.6 -2.7 1220.15 -3.6500000000000004Q1220.7 -4.6000000000000005 1220.7 -6.1000000000000005V-62.2Q1220.7 -71.10000000000001 1216.8 -75.15Q1212.8999999999999 -79.2 1206.1 -79.2Q1201.8999999999999 -79.2 1197.6 -77.45Q1193.3 -75.7 1189.0 -71.8Z" fill="#2D2933"/><path d="M3.544921875 78.0V45.98828125H8.443359375V73.7890625H22.9453125V78.0ZM38.974609375 78.0 50.361328125 45.98828125H56.376953125L67.978515625 78.0H62.671875L56.44140625 60.189453125Q55.7109375 58.01953125 54.8408203125 55.076171875Q53.970703125 52.1328125 52.83203125 48.0078125H53.8203125Q52.724609375 52.17578125 51.8544921875 55.1513671875Q50.984375 58.126953125 50.318359375 60.189453125L44.28125 78.0ZM45.140625 69.556640625V65.474609375H61.791015625V69.556640625ZM91.591796875 78.0 80.01171875 45.98828125H85.296875L91.52734375 63.798828125Q92.21484375 65.861328125 93.1064453125 68.84765625Q93.998046875 71.833984375 95.13671875 75.89453125H94.126953125Q95.244140625 71.748046875 96.1142578125 68.8046875Q96.984375 65.861328125 97.650390625 63.798828125L103.708984375 45.98828125H109.015625L97.5859375 78.0ZM126.65625 78.0V45.98828125H146.80859375V50.19921875H131.5546875V59.73828125H145.712890625V63.927734375H131.5546875V73.7890625H146.9375V78.0ZM166.189453125 78.0V45.98828125H171.83984375L183.892578125 65.044921875Q184.494140625 65.990234375 185.24609375 67.30078125Q185.998046875 68.611328125 186.8359375 70.2548828125Q187.673828125 71.8984375 188.490234375 73.83203125H187.888671875Q187.6953125 72.005859375 187.5986328125 70.2119140625Q187.501953125 68.41796875 187.458984375 66.849609375Q187.416015625 65.28125 187.416015625 64.20703125V45.98828125H192.37890625V78.0H186.70703125L175.900390625 60.962890625Q175.041015625 59.56640625 174.2138671875 58.1484375Q173.38671875 56.73046875 172.3876953125 54.8720703125Q171.388671875 53.013671875 169.94921875 50.349609375H170.72265625Q170.830078125 52.712890625 170.9375 54.7646484375Q171.044921875 56.81640625 171.0986328125 58.3955078125Q171.15234375 59.974609375 171.15234375 60.919921875V78.0ZM222.8671875 78.0H214.9609375V73.703125H222.609375Q226.240234375 73.703125 228.646484375 72.349609375Q231.052734375 70.99609375 232.255859375 68.3642578125Q233.458984375 65.732421875 233.458984375 61.951171875Q233.458984375 58.19140625 232.2666015625 55.591796875Q231.07421875 52.9921875 228.7216796875 51.638671875Q226.369140625 50.28515625 222.8671875 50.28515625H214.7890625V45.98828125H223.189453125Q227.916015625 45.98828125 231.2890625 47.900390625Q234.662109375 49.8125 236.466796875 53.3896484375Q238.271484375 56.966796875 238.271484375 61.951171875Q238.271484375 66.95703125 236.4560546875 70.544921875Q234.640625 74.1328125 231.1923828125 76.06640625Q227.744140625 78.0 222.8671875 78.0ZM217.3671875 45.98828125V78.0H212.46875V45.98828125ZM257.22265625 78.0V45.98828125H277.375V50.19921875H262.12109375V59.73828125H276.279296875V63.927734375H262.12109375V73.7890625H277.50390625V78.0ZM296.755859375 78.0V45.98828125H308.228515625Q311.923828125 45.98828125 314.39453125 47.2666015625Q316.865234375 48.544921875 318.08984375 50.822265625Q319.314453125 53.099609375 319.314453125 56.04296875Q319.314453125 59.0078125 318.0791015625 61.2314453125Q316.84375 63.455078125 314.373046875 64.6796875Q311.90234375 65.904296875 308.185546875 65.904296875H299.5703125V61.71484375H307.712890625Q310.076171875 61.71484375 311.5263671875 61.0380859375Q312.9765625 60.361328125 313.6640625 59.09375Q314.3515625 57.826171875 314.3515625 56.04296875Q314.3515625 54.23828125 313.6640625 52.927734375Q312.9765625 51.6171875 311.515625 50.8974609375Q310.0546875 50.177734375 307.669921875 50.177734375H301.654296875V78.0ZM314.953125 78.0 307.197265625 63.541015625H312.6328125L320.517578125 78.0ZM366.1328125 65.96875Q364.80078125 65.96875 363.876953125 65.044921875Q362.953125 64.12109375 362.953125 62.810546875Q362.953125 61.478515625 363.876953125 60.5654296875Q364.80078125 59.65234375 366.1328125 59.65234375Q367.443359375 59.65234375 368.3671875 60.5654296875Q369.291015625 61.478515625 369.291015625 62.810546875Q369.291015625 64.12109375 368.3671875 65.044921875Q367.443359375 65.96875 366.1328125 65.96875ZM414.068359375 78.0V45.98828125H419.71875L431.771484375 65.044921875Q432.373046875 65.990234375 433.125 67.30078125Q433.876953125 68.611328125 434.71484375 70.2548828125Q435.552734375 71.8984375 436.369140625 73.83203125H435.767578125Q435.57421875 72.005859375 435.4775390625 70.2119140625Q435.380859375 68.41796875 435.337890625 66.849609375Q435.294921875 65.28125 435.294921875 64.20703125V45.98828125H440.2578125V78.0H434.5859375L423.779296875 60.962890625Q422.919921875 59.56640625 422.0927734375 58.1484375Q421.265625 56.73046875 420.2666015625 54.8720703125Q419.267578125 53.013671875 417.828125 50.349609375H418.6015625Q418.708984375 52.712890625 418.81640625 54.7646484375Q418.923828125 56.81640625 418.9775390625 58.3955078125Q419.03125 59.974609375 419.03125 60.919921875V78.0ZM457.8984375 78.0 469.28515625 45.98828125H475.30078125L486.90234375 78.0H481.595703125L475.365234375 60.189453125Q474.634765625 58.01953125 473.7646484375 55.076171875Q472.89453125 52.1328125 471.755859375 48.0078125H472.744140625Q471.6484375 52.17578125 470.7783203125 55.1513671875Q469.908203125 58.126953125 469.2421875 60.189453125L463.205078125 78.0ZM464.064453125 69.556640625V65.474609375H480.71484375V69.556640625ZM504.54296875 78.0V45.98828125H516.015625Q519.7109375 45.98828125 522.181640625 47.2666015625Q524.65234375 48.544921875 525.876953125 50.822265625Q527.1015625 53.099609375 527.1015625 56.04296875Q527.1015625 59.0078125 525.8662109375 61.2314453125Q524.630859375 63.455078125 522.16015625 64.6796875Q519.689453125 65.904296875 515.97265625 65.904296875H507.357421875V61.71484375H515.5Q517.86328125 61.71484375 519.3134765625 61.0380859375Q520.763671875 60.361328125 521.451171875 59.09375Q522.138671875 57.826171875 522.138671875 56.04296875Q522.138671875 54.23828125 521.451171875 52.927734375Q520.763671875 51.6171875 519.302734375 50.8974609375Q517.841796875 50.177734375 515.45703125 50.177734375H509.44140625V78.0ZM522.740234375 78.0 514.984375 63.541015625H520.419921875L528.3046875 78.0ZM543.603515625 78.0 554.990234375 45.98828125H561.005859375L572.607421875 78.0H567.30078125L561.0703125 60.189453125Q560.33984375 58.01953125 559.4697265625 55.076171875Q558.599609375 52.1328125 557.4609375 48.0078125H558.44921875Q557.353515625 52.17578125 556.4833984375 55.1513671875Q555.61328125 58.126953125 554.947265625 60.189453125L548.91015625 78.0ZM549.76953125 69.556640625V65.474609375H566.419921875V69.556640625ZM590.248046875 78.0V45.98828125H597.466796875L604.44921875 64.357421875Q604.75 65.173828125 605.1259765625 66.419921875Q605.501953125 67.666015625 605.91015625 69.126953125Q606.318359375 70.587890625 606.68359375 72.005859375Q607.048828125 73.423828125 607.328125 74.5625H606.296875Q606.576171875 73.48828125 606.94140625 72.0810546875Q607.306640625 70.673828125 607.71484375 69.212890625Q608.123046875 67.751953125 608.509765625 66.462890625Q608.896484375 65.173828125 609.197265625 64.357421875L616.072265625 45.98828125H623.333984375V78.0H618.45703125V60.76953125Q618.45703125 59.78125 618.478515625 58.40625Q618.5 57.03125 618.5322265625 55.4951171875Q618.564453125 53.958984375 618.5966796875 52.390625Q618.62890625 50.822265625 618.650390625 49.3828125H619.015625Q618.5859375 50.951171875 618.0810546875 52.6162109375Q617.576171875 54.28125 617.0927734375 55.828125Q616.609375 57.375 616.1689453125 58.6533203125Q615.728515625 59.931640625 615.427734375 60.76953125L608.875 78.0H604.685546875L598.046875 60.76953125Q597.724609375 59.953125 597.3056640625 58.6962890625Q596.88671875 57.439453125 596.392578125 55.9033203125Q595.8984375 54.3671875 595.3828125 52.7021484375Q594.8671875 51.037109375 594.3515625 49.3828125H594.78125Q594.82421875 50.693359375 594.8564453125 52.2294921875Q594.888671875 53.765625 594.9208984375 55.333984375Q594.953125 56.90234375 594.9853515625 58.3095703125Q595.017578125 59.716796875 595.017578125 60.76953125V78.0ZM640.953125 78.0 652.33984375 45.98828125H658.35546875L669.95703125 78.0H664.650390625L658.419921875 60.189453125Q657.689453125 58.01953125 656.8193359375 55.076171875Q655.94921875 52.1328125 654.810546875 48.0078125H655.798828125Q654.703125 52.17578125 653.8330078125 55.1513671875Q652.962890625 58.126953125 652.296875 60.189453125L646.259765625 78.0ZM647.119140625 69.556640625V65.474609375H663.76953125V69.556640625ZM682.18359375 50.19921875V45.98828125H707.041015625V50.19921875H697.09375V78.0H692.173828125V50.19921875ZM719.267578125 78.0 730.654296875 45.98828125H736.669921875L748.271484375 78.0H742.96484375L736.734375 60.189453125Q736.00390625 58.01953125 735.1337890625 55.076171875Q734.263671875 52.1328125 733.125 48.0078125H734.11328125Q733.017578125 52.17578125 732.1474609375 55.1513671875Q731.27734375 58.126953125 730.611328125 60.189453125L724.57421875 78.0ZM725.43359375 69.556640625V65.474609375H742.083984375V69.556640625ZM790.642578125 78.0V45.98828125H802.4375Q805.853515625 45.98828125 808.087890625 47.10546875Q810.322265625 48.22265625 811.41796875 50.1240234375Q812.513671875 52.025390625 812.513671875 54.388671875Q812.513671875 56.38671875 811.783203125 57.7509765625Q811.052734375 59.115234375 809.8173828125 59.9423828125Q808.58203125 60.76953125 807.099609375 61.15625V61.478515625Q808.7109375 61.54296875 810.236328125 62.4990234375Q811.76171875 63.455078125 812.7607421875 65.1845703125Q813.759765625 66.9140625 813.759765625 69.384765625Q813.759765625 71.8125 812.6103515625 73.767578125Q811.4609375 75.72265625 809.076171875 76.861328125Q806.69140625 78.0 802.953125 78.0ZM795.541015625 73.7890625H802.458984375Q805.896484375 73.7890625 807.400390625 72.45703125Q808.904296875 71.125 808.904296875 69.1484375Q808.904296875 67.6015625 808.1416015625 66.35546875Q807.37890625 65.109375 805.982421875 64.3681640625Q804.5859375 63.626953125 802.65234375 63.626953125H795.541015625ZM795.541015625 59.845703125H801.96484375Q803.576171875 59.845703125 804.88671875 59.22265625Q806.197265625 58.599609375 806.94921875 57.4609375Q807.701171875 56.322265625 807.701171875 54.796875Q807.701171875 52.8203125 806.326171875 51.4990234375Q804.951171875 50.177734375 802.09375 50.177734375H795.541015625ZM832.5390625 78.0V45.98828125H852.69140625V50.19921875H837.4375V59.73828125H851.595703125V63.927734375H837.4375V73.7890625H852.8203125V78.0ZM872.072265625 78.0V45.98828125H877.72265625L889.775390625 65.044921875Q890.376953125 65.990234375 891.12890625 67.30078125Q891.880859375 68.611328125 892.71875 70.2548828125Q893.556640625 71.8984375 894.373046875 73.83203125H893.771484375Q893.578125 72.005859375 893.4814453125 70.2119140625Q893.384765625 68.41796875 893.341796875 66.849609375Q893.298828125 65.28125 893.298828125 64.20703125V45.98828125H898.26171875V78.0H892.58984375L881.783203125 60.962890625Q880.923828125 59.56640625 880.0966796875 58.1484375Q879.26953125 56.73046875 878.2705078125 54.8720703125Q877.271484375 53.013671875 875.83203125 50.349609375H876.60546875Q876.712890625 52.712890625 876.8203125 54.7646484375Q876.927734375 56.81640625 876.9814453125 58.3955078125Q877.03515625 59.974609375 877.03515625 60.919921875V78.0ZM931.650390625 78.4296875Q927.50390625 78.4296875 924.23828125 76.4638671875Q920.97265625 74.498046875 919.103515625 70.8134765625Q917.234375 67.12890625 917.234375 62.015625Q917.234375 56.880859375 919.103515625 53.1962890625Q920.97265625 49.51171875 924.23828125 47.53515625Q927.50390625 45.55859375 931.650390625 45.55859375Q934.185546875 45.55859375 936.4091796875 46.2890625Q938.6328125 47.01953125 940.3837890625 48.416015625Q942.134765625 49.8125 943.2841796875 51.810546875Q944.43359375 53.80859375 944.841796875 56.34375H939.921875Q939.62109375 54.818359375 938.8583984375 53.6474609375Q938.095703125 52.4765625 937.0 51.66015625Q935.904296875 50.84375 934.55078125 50.435546875Q933.197265625 50.02734375 931.693359375 50.02734375Q928.943359375 50.02734375 926.7626953125 51.4130859375Q924.58203125 52.798828125 923.3359375 55.4736328125Q922.08984375 58.1484375 922.08984375 62.015625Q922.08984375 65.8828125 923.357421875 68.5576171875Q924.625 71.232421875 926.794921875 72.5966796875Q928.96484375 73.9609375 931.693359375 73.9609375Q933.197265625 73.9609375 934.5400390625 73.5419921875Q935.8828125 73.123046875 936.9892578125 72.3173828125Q938.095703125 71.51171875 938.8583984375 70.330078125Q939.62109375 69.1484375 939.921875 67.64453125H944.86328125Q944.498046875 70.0078125 943.380859375 71.9736328125Q942.263671875 73.939453125 940.5234375 75.400390625Q938.783203125 76.861328125 936.5380859375 77.6455078125Q934.29296875 78.4296875 931.650390625 78.4296875ZM963.62109375 78.0V45.98828125H968.51953125V59.5234375H984.375V45.98828125H989.294921875V78.0H984.375V63.734375H968.51953125V78.0Z" fill="#2D2933"/></svg>