<svg xmlns="http://www.w3.org/2000/svg" viewBox="0 0 40 52" width="40" height="52">
  <title>Bench &amp; Bloom mark</title>
  <path d="M20 51 L20 27" stroke="#8B9A7D" stroke-width="2.4" stroke-linecap="round" fill="none"/>
  <path d="M20 40 C 15 39, 12 36, 11 32" stroke="#8B9A7D" stroke-width="2" stroke-linecap="round" fill="none"/>
  <path d="M20 43 C 25 42, 28 39, 29 35" stroke="#8B9A7D" stroke-width="2" stroke-linecap="round" fill="none"/>
  <g fill="#5A4A78">
    <ellipse cx="20" cy="5" rx="1.7" ry="2.4"/>
    <ellipse cx="20" cy="9" rx="2" ry="2.7"/>
    <ellipse cx="15.6" cy="11" rx="1.8" ry="2.5"/>
    <ellipse cx="24.4" cy="11" rx="1.8" ry="2.5"/>
    <ellipse cx="20" cy="13.5" rx="2.1" ry="2.8"/>
    <ellipse cx="14.2" cy="15.6" rx="1.9" ry="2.6"/>
    <ellipse cx="25.8" cy="15.6" rx="1.9" ry="2.6"/>
    <ellipse cx="20" cy="18.1" rx="2.2" ry="2.9"/>
    <ellipse cx="13.6" cy="20.3" rx="2" ry="2.7"/>
    <ellipse cx="26.4" cy="20.3" rx="2" ry="2.7"/>
    <ellipse cx="20" cy="22.6" rx="2.2" ry="2.9"/>
    <ellipse cx="15.2" cy="25" rx="2" ry="2.6"/>
    <ellipse cx="24.8" cy="25" rx="2" ry="2.6"/>
  </g>
</svg>
