<svg xmlns="http://www.w3.org/2000/svg" viewBox="-19.50 11.00 159 159" role="img" aria-label="Bench and Bloom mark"><title>Bench and Bloom mark</title><g fill="#5A4A78"><ellipse cx="60" cy="34" rx="3" ry="5"/><ellipse cx="60" cy="48" rx="3.4" ry="6"/><ellipse cx="60" cy="62" rx="3.6" ry="6.2"/><ellipse cx="60" cy="76" rx="3.4" ry="6"/></g><g fill="#7E6FA0"><ellipse cx="53" cy="42" rx="3.2" ry="6" transform="rotate(-24 53 42)"/><ellipse cx="67" cy="42" rx="3.2" ry="6" transform="rotate(24 67 42)"/><ellipse cx="51" cy="55" rx="3.6" ry="6.5" transform="rotate(-27 51 55)"/><ellipse cx="69" cy="55" rx="3.6" ry="6.5" transform="rotate(27 69 55)"/><ellipse cx="51" cy="68" rx="3.6" ry="6.5" transform="rotate(-27 51 68)"/><ellipse cx="69" cy="68" rx="3.6" ry="6.5" transform="rotate(27 69 68)"/><ellipse cx="54" cy="81" rx="3.2" ry="6" transform="rotate(-22 54 81)"/><ellipse cx="66" cy="81" rx="3.2" ry="6" transform="rotate(22 66 81)"/></g><path d="M60 88 C60 110 60 130 60 150" stroke="#8A9A78" stroke-width="3.0" fill="none" stroke-linecap="round"/><path d="M60 116 C54 114 49 118 46 126" stroke="#8A9A78" stroke-width="2.6" fill="none" stroke-linecap="round"/><path d="M60 116 C66 114 71 118 74 126" stroke="#8A9A78" stroke-width="2.6" fill="none" stroke-linecap="round"/></svg>