<svg xmlns="http://www.w3.org/2000/svg" width="7.5in" height="3in" viewBox="0 0 540 216">
  <!-- Bench & Bloom SINGLE WRAP-AROUND label (final). Sized for Uline S-23397 8oz Boston round.
       Body dia 2.375in, circumference 7.46in, straight label panel 3.125in tall.
       TRIM 7.25 x 2.75in (wraps the 7.46in circ., leaving a ~0.21in bare-glass window so the
       violet syrup still shows AND the ends never need to meet precisely - hand-application
       friendly, no labeller required). BLEED 0.125in all sides -> artwork 7.5 x 3.0in.
       Units = points (72pt = 1in). Fonts: Fraunces (display) + Inter (everything else) - OUTLINE before print.
       Layout: centre = FRONT / Principal Display Panel; left + right wings curve to the back and
       meet at the rear seam (all legal copy on the back). Delete #guides before print.
       Nutrition Facts = GENERIC ESTIMATE - VERIFY with a calculated table before print.
       US Nutrition Facts format differs from this Canadian table - see printer guide [VERIFY]. -->

  <!-- ground -->
  <rect x="0" y="0" width="540" height="216" fill="#F7F3EE"/>

  <!-- ============================ FRONT / PDP (centre, x168-372) ============================ -->
  <!-- sprig mark -->
  <svg x="248" y="20" width="44" height="44" viewBox="-19.50 11.00 159 159">
    <g fill="#5A4A78"><ellipse cx="60" cy="34" rx="3" ry="5"/><ellipse cx="60" cy="48" rx="3.4" ry="6"/><ellipse cx="60" cy="62" rx="3.6" ry="6.2"/><ellipse cx="60" cy="76" rx="3.4" ry="6"/></g>
    <g fill="#7E6FA0"><ellipse cx="53" cy="42" rx="3.2" ry="6" transform="rotate(-24 53 42)"/><ellipse cx="67" cy="42" rx="3.2" ry="6" transform="rotate(24 67 42)"/><ellipse cx="51" cy="55" rx="3.6" ry="6.5" transform="rotate(-27 51 55)"/><ellipse cx="69" cy="55" rx="3.6" ry="6.5" transform="rotate(27 69 55)"/><ellipse cx="51" cy="68" rx="3.6" ry="6.5" transform="rotate(-27 51 68)"/><ellipse cx="69" cy="68" rx="3.6" ry="6.5" transform="rotate(27 69 68)"/><ellipse cx="54" cy="81" rx="3.2" ry="6" transform="rotate(-22 54 81)"/><ellipse cx="66" cy="81" rx="3.2" ry="6" transform="rotate(22 66 81)"/></g>
    <path d="M60 88 C60 110 60 130 60 150" stroke="#8A9A78" stroke-width="3.0" fill="none" stroke-linecap="round"/>
    <path d="M60 116 C54 114 49 118 46 126" stroke="#8A9A78" stroke-width="2.6" fill="none" stroke-linecap="round"/>
    <path d="M60 116 C66 114 71 118 74 126" stroke="#8A9A78" stroke-width="2.6" fill="none" stroke-linecap="round"/>
  </svg>

  <text x="270" y="86" text-anchor="middle" font-family="Fraunces, Georgia, serif" font-weight="600" font-size="21" fill="#5A4A78">Bench &amp; Bloom</text>
  <text x="270" y="98" text-anchor="middle" font-family="Inter, Arial, sans-serif" font-weight="600" font-size="6.2" letter-spacing="1.7" fill="#7A5E28">NARAMATA BENCH BOTANICALS</text>
  <line x1="222" y1="105" x2="318" y2="105" stroke="#C2A05E" stroke-width="0.8"/>

  <text x="270" y="126" text-anchor="middle" font-family="Fraunces, Georgia, serif" font-weight="600" font-size="14" fill="#2D2933">Lavender Simple Syrup</text>
  <text x="270" y="139" text-anchor="middle" font-family="Inter, Arial, sans-serif" font-style="italic" font-size="9.5" fill="#5A5266">Sirop simple à la lavande</text>

  <text x="270" y="156" text-anchor="middle" font-family="Inter, Arial, sans-serif" font-size="6.2" fill="#2D2933">Small batch &#183; estate-grown &#183; Naramata Bench</text>
  <text x="270" y="166" text-anchor="middle" font-family="Inter, Arial, sans-serif" font-size="6.2" fill="#7A5E28">Lavender + butterfly pea &#183; blooms blue to pink</text>

  <!-- net quantity: metric primary (Canada) + US customary (FDA dual-declaration) -->
  <text x="270" y="190" text-anchor="middle" font-family="Inter, Arial, sans-serif" font-weight="600" font-size="12" fill="#2D2933">250 mL (8.45 fl oz)</text>

  <!-- ============================ DIVIDERS (frame the PDP) ============================ -->
  <g>
    <g fill="#7C6A9C"><ellipse cx="168" cy="29" rx="1.4" ry="2.4"/><ellipse cx="165" cy="32" rx="1.3" ry="2.2"/><ellipse cx="171" cy="32" rx="1.3" ry="2.2"/></g>
    <line x1="168" y1="36" x2="168" y2="188" stroke="#C2A05E" stroke-width="0.6"/>
    <g fill="#7C6A9C"><ellipse cx="372" cy="29" rx="1.4" ry="2.4"/><ellipse cx="369" cy="32" rx="1.3" ry="2.2"/><ellipse cx="375" cy="32" rx="1.3" ry="2.2"/></g>
    <line x1="372" y1="36" x2="372" y2="188" stroke="#C2A05E" stroke-width="0.6"/>
  </g>

  <!-- ============================ RIGHT WING: Nutrition + Ingredients + Use (x374-520) ======= -->
  <!-- Nutrition Facts (Canadian bilingual; ESTIMATE) -->
  <rect x="376" y="24" width="142" height="84" fill="#FFFFFF" stroke="#2D2933" stroke-width="0.9"/>
  <text x="380" y="32" font-family="Inter, Arial, sans-serif" font-weight="700" font-size="7" fill="#2D2933">Nutrition Facts</text>
  <text x="380" y="38.5" font-family="Inter, Arial, sans-serif" font-weight="700" font-size="5.4" fill="#2D2933">Valeur nutritive</text>
  <text x="380" y="44" font-family="Inter, Arial, sans-serif" font-size="4" fill="#2D2933">Per 15 mL (1 tbsp) / pour 15 mL (1 c. à soupe)</text>
  <line x1="380" y1="46" x2="514" y2="46" stroke="#2D2933" stroke-width="0.4"/>
  <text x="380" y="52" font-family="Inter, Arial, sans-serif" font-weight="700" font-size="6" fill="#2D2933">Calories 50</text>
  <text x="514" y="51" text-anchor="end" font-family="Inter, Arial, sans-serif" font-size="3.8" fill="#2D2933">% Daily Value* / % valeur quotidienne*</text>
  <line x1="380" y1="54.5" x2="514" y2="54.5" stroke="#2D2933" stroke-width="1.6"/>
  <text x="380" y="60" font-family="Inter, Arial, sans-serif" font-size="4.6" fill="#2D2933"><tspan font-weight="600">Fat / Lipides</tspan> 0 g</text>
  <text x="514" y="60" text-anchor="end" font-family="Inter, Arial, sans-serif" font-size="4.6" fill="#2D2933">0 %</text>
  <line x1="380" y1="62" x2="514" y2="62" stroke="#2D2933" stroke-width="0.3"/>
  <text x="380" y="67.5" font-family="Inter, Arial, sans-serif" font-size="4.6" fill="#2D2933"><tspan font-weight="600">Carbohydrate / Glucides</tspan> 13 g</text>
  <line x1="380" y1="69.5" x2="514" y2="69.5" stroke="#2D2933" stroke-width="0.3"/>
  <text x="386" y="75" font-family="Inter, Arial, sans-serif" font-size="4.6" fill="#2D2933">Sugars / Sucres 12 g</text>
  <text x="514" y="75" text-anchor="end" font-family="Inter, Arial, sans-serif" font-size="4.6" fill="#2D2933">12 %</text>
  <line x1="380" y1="77" x2="514" y2="77" stroke="#2D2933" stroke-width="0.3"/>
  <text x="380" y="82.5" font-family="Inter, Arial, sans-serif" font-size="4.6" fill="#2D2933"><tspan font-weight="600">Protein / Protéines</tspan> 0 g</text>
  <line x1="380" y1="84.5" x2="514" y2="84.5" stroke="#2D2933" stroke-width="0.3"/>
  <text x="380" y="90" font-family="Inter, Arial, sans-serif" font-size="4.6" fill="#2D2933"><tspan font-weight="600">Sodium</tspan> 0 mg</text>
  <text x="514" y="90" text-anchor="end" font-family="Inter, Arial, sans-serif" font-size="4.6" fill="#2D2933">0 %</text>
  <line x1="380" y1="92.5" x2="514" y2="92.5" stroke="#2D2933" stroke-width="1.2"/>
  <text x="380" y="98" font-family="Inter, Arial, sans-serif" font-size="3.8" fill="#2D2933">*5% or less is a little, 15% or more is a lot</text>
  <text x="380" y="102.5" font-family="Inter, Arial, sans-serif" font-size="3.8" fill="#2D2933">*5% ou moins c'est peu, 15% ou plus c'est beaucoup</text>

  <!-- Ingredients (bilingual; descending by weight) -->
  <text x="376" y="117" font-family="Inter, Arial, sans-serif" font-size="4.6" fill="#2D2933"><tspan font-weight="600">Ingredients:</tspan> Sugar, water, lavender,</text>
  <text x="376" y="122.5" font-family="Inter, Arial, sans-serif" font-size="4.6" fill="#2D2933">butterfly pea flower (Clitoria ternatea).</text>
  <text x="376" y="129" font-family="Inter, Arial, sans-serif" font-size="4.6" fill="#2D2933"><tspan font-weight="600">Ingrédients :</tspan> Sucre, eau, lavande,</text>
  <text x="376" y="134.5" font-family="Inter, Arial, sans-serif" font-size="4.6" fill="#2D2933">fleur de pois bleu (Clitoria ternatea).</text>
  <text x="376" y="141" font-family="Inter, Arial, sans-serif" font-size="4.4" fill="#7A5E28">No essential oils. / Sans huiles essentielles.</text>

  <!-- How to use -->
  <line x1="376" y1="150" x2="518" y2="150" stroke="#C2A05E" stroke-width="0.5"/>
  <text x="376" y="159" font-family="Inter, Arial, sans-serif" font-size="4.4" fill="#2D2933">Stir into gin, vodka or sparkling cocktails, or soda.</text>
  <text x="376" y="165" font-family="Inter, Arial, sans-serif" font-size="4.4" fill="#5A4A78">Add citrus to turn it from blue to pink.</text>
  <text x="376" y="171" font-family="Inter, Arial, sans-serif" font-size="4.4" fill="#2D2933">Refrigerate after opening /</text>
  <text x="376" y="176.5" font-family="Inter, Arial, sans-serif" font-size="4.4" fill="#2D2933">Réfrigérer après ouverture.</text>

  <!-- ============================ LEFT WING: Story + Producer + Dates + Barcode (x18-164) ===== -->
  <text x="91" y="26" text-anchor="middle" font-family="Inter, Arial, sans-serif" font-weight="600" font-size="4.6" letter-spacing="0.6" fill="#7A5E28">BENCH &amp; BLOOM &#183; NARAMATA BENCH BOTANICALS</text>

  <text x="20" y="40" font-family="Inter, Arial, sans-serif" font-size="4.6" fill="#2D2933">Half an acre of Grosso lavender on the</text>
  <text x="20" y="45.5" font-family="Inter, Arial, sans-serif" font-size="4.6" fill="#2D2933">Naramata Bench, above Okanagan Lake.</text>
  <text x="20" y="51" font-family="Inter, Arial, sans-serif" font-size="4.6" fill="#2D2933">Real buds, steeped &amp; strained by hand.</text>
  <text x="20" y="56.5" font-family="Inter, Arial, sans-serif" font-size="4.6" fill="#2D2933">No synthetic flavour. / Sans arôme synthétique.</text>

  <line x1="20" y1="64" x2="162" y2="64" stroke="#C2A05E" stroke-width="0.5"/>

  <text x="20" y="73" font-family="Inter, Arial, sans-serif" font-size="4.6" fill="#2D2933">Best before / Meilleur avant: YYYY MM DD</text>
  <text x="20" y="78.5" font-family="Inter, Arial, sans-serif" font-size="4.6" fill="#2D2933">LOT 2026-001</text>

  <text x="20" y="89" font-family="Inter, Arial, sans-serif" font-weight="600" font-size="4.6" fill="#2D2933">Prepared for / Préparé pour:</text>
  <text x="20" y="94.5" font-family="Inter, Arial, sans-serif" font-size="4.4" fill="#2D2933">Bench &amp; Bloom, 3820 Partridge Rd,</text>
  <text x="20" y="99.5" font-family="Inter, Arial, sans-serif" font-size="4.4" fill="#2D2933">Naramata, BC, Canada V0H 1N0</text>
  <text x="20" y="104.5" font-family="Inter, Arial, sans-serif" font-size="4.4" fill="#5A4A78">benchandbloom.com &#183; hello@benchandbloom.com</text>
  <text x="20" y="111" font-family="Inter, Arial, sans-serif" font-size="4.2" fill="#5A5266">Product of Canada / Produit du Canada</text>

  <!-- UPC barcode (GS1 Canada GTIN 627146286305) -->
  <svg x="20" y="150" width="68" height="40" viewBox="0 0 1036 605" preserveAspectRatio="xMidYMid meet"><g text-rendering="geometricPrecision">
    <rect x="0" y="0" width="1036" height="605" fill="#ffffff" />
    <rect x="138" y="0" width="8" height="540" fill="#000000" />
    <rect x="154" y="0" width="8" height="540" fill="#000000" />
    <rect x="170" y="0" width="8" height="540" fill="#000000" />
    <rect x="186" y="0" width="32" height="540" fill="#000000" />
    <rect x="234" y="0" width="8" height="540" fill="#000000" />
    <rect x="258" y="0" width="16" height="540" fill="#000000" />
    <rect x="282" y="0" width="24" height="540" fill="#000000" />
    <rect x="314" y="0" width="16" height="540" fill="#000000" />
    <rect x="346" y="0" width="16" height="540" fill="#000000" />
    <rect x="378" y="0" width="8" height="540" fill="#000000" />
    <rect x="394" y="0" width="8" height="540" fill="#000000" />
    <rect x="426" y="0" width="16" height="540" fill="#000000" />
    <rect x="450" y="0" width="8" height="540" fill="#000000" />
    <rect x="466" y="0" width="32" height="540" fill="#000000" />
    <rect x="506" y="0" width="8" height="540" fill="#000000" />
    <rect x="522" y="0" width="8" height="540" fill="#000000" />
    <rect x="538" y="0" width="16" height="540" fill="#000000" />
    <rect x="562" y="0" width="16" height="540" fill="#000000" />
    <rect x="594" y="0" width="8" height="540" fill="#000000" />
    <rect x="618" y="0" width="8" height="540" fill="#000000" />
    <rect x="650" y="0" width="8" height="540" fill="#000000" />
    <rect x="666" y="0" width="8" height="540" fill="#000000" />
    <rect x="706" y="0" width="8" height="540" fill="#000000" />
    <rect x="746" y="0" width="8" height="540" fill="#000000" />
    <rect x="762" y="0" width="24" height="540" fill="#000000" />
    <rect x="802" y="0" width="8" height="540" fill="#000000" />
    <rect x="818" y="0" width="8" height="540" fill="#000000" />
    <rect x="842" y="0" width="24" height="540" fill="#000000" />
    <rect x="874" y="0" width="8" height="540" fill="#000000" />
    <rect x="890" y="0" width="8" height="540" fill="#000000" />
    <rect x="70" y="513" width="68" height="92" fill="#ffffff" />
    <g transform="translate(67, 514)">
      <path d="M 36.194114685058594 37.7578125 C 33.006614685058594 37.7578125 30.481224060058594 38.84765625 28.617942810058594 41.02734375 C 26.754661560058594 43.20703125 25.823020935058594 46.1953125 25.823020935058594 49.9921875 C 25.823020935058594 53.765625 26.754661560058594 56.748046875 28.617942810058594 58.939453125 C 30.481224060058594 61.130859375 33.006614685058594 62.2265625 36.194114685058594 62.2265625 C 39.381614685058594 62.2265625 41.907005310058594 61.130859375 43.770286560058594 58.939453125 C 45.633567810058594 56.748046875 46.565208435058594 53.765625 46.565208435058594 49.9921875 C 46.565208435058594 46.1953125 45.633567810058594 43.20703125 43.770286560058594 41.02734375 C 41.907005310058594 38.84765625 39.381614685058594 37.7578125 36.194114685058594 37.7578125 Z M 50.291770935058594 15.50390625 L 50.291770935058594 21.97265625 C 48.510520935058594 21.12890625 46.711692810058594 20.484375 44.895286560058594 20.0390625 C 43.078880310058594 19.59375 41.280052185058594 19.37109375 39.498802185058594 19.37109375 C 34.811302185058594 19.37109375 31.231224060058594 20.953125 28.758567810058594 24.1171875 C 26.285911560058594 27.28125 24.873802185058594 32.0625 24.522239685058594 38.4609375 C 25.905052185058594 36.421875 27.639427185058594 34.857421875 29.725364685058594 33.767578125 C 31.811302185058594 32.677734375 34.108177185058594 32.1328125 36.615989685058594 32.1328125 C 41.889427185058594 32.1328125 46.055442810058594 33.732421875 49.114036560058594 36.931640625 C 52.172630310058594 40.130859375 53.701927185058594 44.484375 53.701927185058594 49.9921875 C 53.701927185058594 55.3828125 52.108177185058594 59.70703125 48.920677185058594 62.96484375 C 45.733177185058594 66.22265625 41.490989685058594 67.8515625 36.194114685058594 67.8515625 C 30.123802185058594 67.8515625 25.483177185058594 65.525390625 22.272239685058594 60.873046875 C 19.061302185058594 56.220703125 17.455833435058594 49.4765625 17.455833435058594 40.640625 C 17.455833435058594 32.34375 19.424583435058594 25.728515625 23.362083435058594 20.794921875 C 27.299583435058594 15.861328125 32.584739685058594 13.39453125 39.217552185058594 13.39453125 C 40.998802185058594 13.39453125 42.797630310058594 13.5703125 44.614036560058594 13.921875 C 46.430442810058594 14.2734375 48.323020935058594 14.80078125 50.291770935058594 15.50390625 Z " fill="#000000" shape-rendering="geometricPrecision" />
    </g>
    <rect x="219" y="513" width="280" height="92" fill="#ffffff" />
    <rect x="532" y="513" width="285" height="92" fill="#ffffff" />
    <g transform="translate(224, 514)">
      <path d="M 26.244895935058594 60.85546875 L 51.030052185058594 60.85546875 L 51.030052185058594 66.83203125 L 17.701927185058594 66.83203125 L 17.701927185058594 60.85546875 C 20.397239685058594 58.06640625 24.071067810058594 54.322265625 28.723411560058594 49.623046875 C 33.375755310058594 44.923828125 36.299583435058594 41.89453125 37.494895935058594 40.53515625 C 39.768333435058594 37.98046875 41.356224060058594 35.818359375 42.258567810058594 34.048828125 C 43.160911560058594 32.279296875 43.612083435058594 30.5390625 43.612083435058594 28.828125 C 43.612083435058594 26.0390625 42.633567810058594 23.765625 40.676536560058594 22.0078125 C 38.719505310058594 20.25 36.170677185058594 19.37109375 33.030052185058594 19.37109375 C 30.803489685058594 19.37109375 28.453880310058594 19.7578125 25.981224060058594 20.53125 C 23.508567810058594 21.3046875 20.865989685058594 22.4765625 18.053489685058594 24.046875 L 18.053489685058594 16.875 C 20.912864685058594 15.7265625 23.584739685058594 14.859375 26.069114685058594 14.2734375 C 28.553489685058594 13.6875 30.826927185058594 13.39453125 32.889427185058594 13.39453125 C 38.326927185058594 13.39453125 42.662864685058594 14.75390625 45.897239685058594 17.47265625 C 49.131614685058594 20.19140625 50.748802185058594 23.82421875 50.748802185058594 28.37109375 C 50.748802185058594 30.52734375 50.344505310058594 32.572265625 49.535911560058594 34.505859375 C 48.727317810058594 36.439453125 47.256614685058594 38.71875 45.123802185058594 41.34375 C 44.537864685058594 42.0234375 42.674583435058594 43.986328125 39.533958435058594 47.232421875 C 36.393333435058594 50.478515625 31.963645935058594 55.01953125 26.244895935058594 60.85546875 Z M 64.1433334350586 14.34375 L 97.8933334350586 14.34375 L 97.8933334350586 17.3671875 L 78.8386459350586 66.83203125 L 71.4206771850586 66.83203125 L 89.3503646850586 20.3203125 L 64.1433334350586 20.3203125 L 64.1433334350586 14.34375 Z M 112.97536468505859 60.85546875 L 124.57692718505859 60.85546875 L 124.57692718505859 20.8125 L 111.95583343505859 23.34375 L 111.95583343505859 16.875 L 124.50661468505859 14.34375 L 131.60818481445313 14.34375 L 131.60818481445313 60.85546875 L 143.20974731445313 60.85546875 L 143.20974731445313 66.83203125 L 112.97536468505859 66.83203125 L 112.97536468505859 60.85546875 Z M 177.06521606445313 20.53125 L 159.13552856445313 48.55078125 L 177.06521606445313 48.55078125 L 177.06521606445313 20.53125 Z M 175.20193481445313 14.34375 L 184.13162231445313 14.34375 L 184.13162231445313 48.55078125 L 191.61990356445313 48.55078125 L 191.61990356445313 54.45703125 L 184.13162231445313 54.45703125 L 184.13162231445313 66.83203125 L 177.06521606445313 66.83203125 L 177.06521606445313 54.45703125 L 153.36990356445313 54.45703125 L 153.36990356445313 47.6015625 L 175.20193481445313 14.34375 Z M 219.42849731445313 37.7578125 C 216.24099731445313 37.7578125 213.71560668945313 38.84765625 211.85232543945313 41.02734375 C 209.98904418945313 43.20703125 209.05740356445313 46.1953125 209.05740356445313 49.9921875 C 209.05740356445313 53.765625 209.98904418945313 56.748046875 211.85232543945313 58.939453125 C 213.71560668945313 61.130859375 216.24099731445313 62.2265625 219.42849731445313 62.2265625 C 222.61599731445313 62.2265625 225.14138793945313 61.130859375 227.00466918945313 58.939453125 C 228.86795043945313 56.748046875 229.79959106445313 53.765625 229.79959106445313 49.9921875 C 229.79959106445313 46.1953125 228.86795043945313 43.20703125 227.00466918945313 41.02734375 C 225.14138793945313 38.84765625 222.61599731445313 37.7578125 219.42849731445313 37.7578125 Z M 233.52615356445313 15.50390625 L 233.52615356445313 21.97265625 C 231.74490356445313 21.12890625 229.94607543945313 20.484375 228.12966918945313 20.0390625 C 226.31326293945313 19.59375 224.51443481445313 19.37109375 222.73318481445313 19.37109375 C 218.04568481445313 19.37109375 214.46560668945313 20.953125 211.99295043945313 24.1171875 C 209.52029418945313 27.28125 208.10818481445313 32.0625 207.75662231445313 38.4609375 C 209.13943481445313 36.421875 210.87380981445313 34.857421875 212.95974731445313 33.767578125 C 215.04568481445313 32.677734375 217.34255981445313 32.1328125 219.85037231445313 32.1328125 C 225.12380981445313 32.1328125 229.28982543945313 33.732421875 232.34841918945313 36.931640625 C 235.40701293945313 40.130859375 236.93630981445313 44.484375 236.93630981445313 49.9921875 C 236.93630981445313 55.3828125 235.34255981445313 59.70703125 232.15505981445313 62.96484375 C 228.96755981445313 66.22265625 224.72537231445313 67.8515625 219.42849731445313 67.8515625 C 213.35818481445313 67.8515625 208.71755981445313 65.525390625 205.50662231445313 60.873046875 C 202.29568481445313 56.220703125 200.69021606445313 49.4765625 200.69021606445313 40.640625 C 200.69021606445313 32.34375 202.65896606445313 25.728515625 206.59646606445313 20.794921875 C 210.53396606445313 15.861328125 215.81912231445313 13.39453125 222.45193481445313 13.39453125 C 224.23318481445313 13.39453125 226.03201293945313 13.5703125 227.84841918945313 13.921875 C 229.66482543945313 14.2734375 231.55740356445313 14.80078125 233.52615356445313 15.50390625 Z " fill="#000000" shape-rendering="geometricPrecision" />
    </g>
    <g transform="translate(540, 514)">
      <path d="M 26.244895935058594 60.85546875 L 51.030052185058594 60.85546875 L 51.030052185058594 66.83203125 L 17.701927185058594 66.83203125 L 17.701927185058594 60.85546875 C 20.397239685058594 58.06640625 24.071067810058594 54.322265625 28.723411560058594 49.623046875 C 33.375755310058594 44.923828125 36.299583435058594 41.89453125 37.494895935058594 40.53515625 C 39.768333435058594 37.98046875 41.356224060058594 35.818359375 42.258567810058594 34.048828125 C 43.160911560058594 32.279296875 43.612083435058594 30.5390625 43.612083435058594 28.828125 C 43.612083435058594 26.0390625 42.633567810058594 23.765625 40.676536560058594 22.0078125 C 38.719505310058594 20.25 36.170677185058594 19.37109375 33.030052185058594 19.37109375 C 30.803489685058594 19.37109375 28.453880310058594 19.7578125 25.981224060058594 20.53125 C 23.508567810058594 21.3046875 20.865989685058594 22.4765625 18.053489685058594 24.046875 L 18.053489685058594 16.875 C 20.912864685058594 15.7265625 23.584739685058594 14.859375 26.069114685058594 14.2734375 C 28.553489685058594 13.6875 30.826927185058594 13.39453125 32.889427185058594 13.39453125 C 38.326927185058594 13.39453125 42.662864685058594 14.75390625 45.897239685058594 17.47265625 C 49.131614685058594 20.19140625 50.748802185058594 23.82421875 50.748802185058594 28.37109375 C 50.748802185058594 30.52734375 50.344505310058594 32.572265625 49.535911560058594 34.505859375 C 48.727317810058594 36.439453125 47.256614685058594 38.71875 45.123802185058594 41.34375 C 44.537864685058594 42.0234375 42.674583435058594 43.986328125 39.533958435058594 47.232421875 C 36.393333435058594 50.478515625 31.963645935058594 55.01953125 26.244895935058594 60.85546875 Z M 81.1238021850586 41.90625 C 77.7488021850586 41.90625 75.0945053100586 42.80859375 73.1609115600586 44.61328125 C 71.2273178100586 46.41796875 70.2605209350586 48.90234375 70.2605209350586 52.06640625 C 70.2605209350586 55.23046875 71.2273178100586 57.71484375 73.1609115600586 59.51953125 C 75.0945053100586 61.32421875 77.7488021850586 62.2265625 81.1238021850586 62.2265625 C 84.4988021850586 62.2265625 87.1589584350586 61.318359375 89.1042709350586 59.501953125 C 91.0495834350586 57.685546875 92.0222396850586 55.20703125 92.0222396850586 52.06640625 C 92.0222396850586 48.90234375 91.0554428100586 46.41796875 89.1218490600586 44.61328125 C 87.1882553100586 42.80859375 84.5222396850586 41.90625 81.1238021850586 41.90625 Z M 74.0222396850586 38.8828125 C 70.9753646850586 38.1328125 68.6023178100586 36.71484375 66.9030990600586 34.62890625 C 65.2038803100586 32.54296875 64.3542709350586 30 64.3542709350586 27 C 64.3542709350586 22.8046875 65.8484115600586 19.48828125 68.8366928100586 17.05078125 C 71.8249740600586 14.61328125 75.9206771850586 13.39453125 81.1238021850586 13.39453125 C 86.3503646850586 13.39453125 90.4519271850586 14.61328125 93.4284896850586 17.05078125 C 96.4050521850586 19.48828125 97.8933334350586 22.8046875 97.8933334350586 27 C 97.8933334350586 30 97.0437240600586 32.54296875 95.3445053100586 34.62890625 C 93.6452865600586 36.71484375 91.2839584350586 38.1328125 88.2605209350586 38.8828125 C 91.6823959350586 39.6796875 94.3484115600586 41.23828125 96.2585678100586 43.55859375 C 98.1687240600586 45.87890625 99.1238021850586 48.71484375 99.1238021850586 52.06640625 C 99.1238021850586 57.15234375 97.5710678100586 61.0546875 94.4655990600586 63.7734375 C 91.3601303100586 66.4921875 86.9128646850586 67.8515625 81.1238021850586 67.8515625 C 75.3347396850586 67.8515625 70.8874740600586 66.4921875 67.7820053100586 63.7734375 C 64.6765365600586 61.0546875 63.123802185058594 57.15234375 63.123802185058594 52.06640625 C 63.123802185058594 48.71484375 64.0847396850586 45.87890625 66.0066146850586 43.55859375 C 67.9284896850586 41.23828125 70.6003646850586 39.6796875 74.0222396850586 38.8828125 Z M 71.4206771850586 27.66796875 C 71.4206771850586 30.38671875 72.2702865600586 32.5078125 73.9695053100586 34.03125 C 75.6687240600586 35.5546875 78.0534896850586 36.31640625 81.1238021850586 36.31640625 C 84.1706771850586 36.31640625 86.5554428100586 35.5546875 88.2780990600586 34.03125 C 90.0007553100586 32.5078125 90.8620834350586 30.38671875 90.8620834350586 27.66796875 C 90.8620834350586 24.94921875 90.0007553100586 22.828125 88.2780990600586 21.3046875 C 86.5554428100586 19.78125 84.1706771850586 19.01953125 81.1238021850586 19.01953125 C 78.0534896850586 19.01953125 75.6687240600586 19.78125 73.9695053100586 21.3046875 C 72.2702865600586 22.828125 71.4206771850586 24.94921875 71.4206771850586 27.66796875 Z M 127.81130218505859 37.7578125 C 124.62380218505859 37.7578125 122.09841156005859 38.84765625 120.23513031005859 41.02734375 C 118.37184906005859 43.20703125 117.44020843505859 46.1953125 117.44020843505859 49.9921875 C 117.44020843505859 53.765625 118.37184906005859 56.748046875 120.23513031005859 58.939453125 C 122.09841156005859 61.130859375 124.62380218505859 62.2265625 127.81130218505859 62.2265625 C 130.99880981445313 62.2265625 133.52420043945313 61.130859375 135.38748168945313 58.939453125 C 137.25076293945313 56.748046875 138.18240356445313 53.765625 138.18240356445313 49.9921875 C 138.18240356445313 46.1953125 137.25076293945313 43.20703125 135.38748168945313 41.02734375 C 133.52420043945313 38.84765625 130.99880981445313 37.7578125 127.81130218505859 37.7578125 Z M 141.90896606445313 15.50390625 L 141.90896606445313 21.97265625 C 140.12771606445313 21.12890625 138.32888793945313 20.484375 136.51248168945313 20.0390625 C 134.69607543945313 19.59375 132.89724731445313 19.37109375 131.11599731445313 19.37109375 C 126.42848968505859 19.37109375 122.84841156005859 20.953125 120.37575531005859 24.1171875 C 117.90309906005859 27.28125 116.49098968505859 32.0625 116.13942718505859 38.4609375 C 117.52223968505859 36.421875 119.25661468505859 34.857421875 121.34255218505859 33.767578125 C 123.42848968505859 32.677734375 125.72536468505859 32.1328125 128.23318481445313 32.1328125 C 133.50662231445313 32.1328125 137.67263793945313 33.732421875 140.73123168945313 36.931640625 C 143.78982543945313 40.130859375 145.31912231445313 44.484375 145.31912231445313 49.9921875 C 145.31912231445313 55.3828125 143.72537231445313 59.70703125 140.53787231445313 62.96484375 C 137.35037231445313 66.22265625 133.10818481445313 67.8515625 127.81130218505859 67.8515625 C 121.74098968505859 67.8515625 117.10036468505859 65.525390625 113.88942718505859 60.873046875 C 110.67848968505859 56.220703125 109.07302093505859 49.4765625 109.07302093505859 40.640625 C 109.07302093505859 32.34375 111.04177093505859 25.728515625 114.97927093505859 20.794921875 C 118.91677093505859 15.861328125 124.20192718505859 13.39453125 130.83474731445313 13.39453125 C 132.61599731445313 13.39453125 134.41482543945313 13.5703125 136.23123168945313 13.921875 C 138.04763793945313 14.2734375 139.94021606445313 14.80078125 141.90896606445313 15.50390625 Z M 179.06912231445313 38.53125 C 182.46755981445313 39.2578125 185.12185668945313 40.76953125 187.03201293945313 43.06640625 C 188.94216918945313 45.36328125 189.89724731445313 48.19921875 189.89724731445313 51.57421875 C 189.89724731445313 56.75390625 188.11599731445313 60.76171875 184.55349731445313 63.59765625 C 180.99099731445313 66.43359375 175.92849731445313 67.8515625 169.36599731445313 67.8515625 C 167.16287231445313 67.8515625 164.89529418945313 67.634765625 162.56326293945313 67.201171875 C 160.23123168945313 66.767578125 157.82302856445313 66.1171875 155.33865356445313 65.25 L 155.33865356445313 58.39453125 C 157.30740356445313 59.54296875 159.46365356445313 60.41015625 161.80740356445313 60.99609375 C 164.15115356445313 61.58203125 166.60037231445313 61.875 169.15505981445313 61.875 C 173.60818481445313 61.875 177.00076293945313 60.99609375 179.33279418945313 59.23828125 C 181.66482543945313 57.48046875 182.83084106445313 54.92578125 182.83084106445313 51.57421875 C 182.83084106445313 48.48046875 181.74685668945313 46.060546875 179.57888793945313 44.314453125 C 177.41091918945313 42.568359375 174.39334106445313 41.6953125 170.52615356445313 41.6953125 L 164.40896606445313 41.6953125 L 164.40896606445313 35.859375 L 170.80740356445313 35.859375 C 174.29959106445313 35.859375 176.97146606445313 35.162109375 178.82302856445313 33.767578125 C 180.67459106445313 32.373046875 181.60037231445313 30.36328125 181.60037231445313 27.73828125 C 181.60037231445313 25.04296875 180.64529418945313 22.974609375 178.73513793945313 21.533203125 C 176.82498168945313 20.091796875 174.08865356445313 19.37109375 170.52615356445313 19.37109375 C 168.58084106445313 19.37109375 166.49490356445313 19.58203125 164.26834106445313 20.00390625 C 162.04177856445313 20.42578125 159.59255981445313 21.08203125 156.92068481445313 21.97265625 L 156.92068481445313 15.64453125 C 159.61599731445313 14.89453125 162.14138793945313 14.33203125 164.49685668945313 13.95703125 C 166.85232543945313 13.58203125 169.07302856445313 13.39453125 171.15896606445313 13.39453125 C 176.54959106445313 13.39453125 180.81521606445313 14.619140625 183.95584106445313 17.068359375 C 187.09646606445313 19.517578125 188.66677856445313 22.828125 188.66677856445313 27 C 188.66677856445313 29.90625 187.83474731445313 32.361328125 186.17068481445313 34.365234375 C 184.50662231445313 36.369140625 182.13943481445313 37.7578125 179.06912231445313 38.53125 Z M 218.54959106445313 19.01953125 C 214.89334106445313 19.01953125 212.14529418945313 20.818359375 210.30545043945313 24.416015625 C 208.46560668945313 28.013671875 207.54568481445313 33.421875 207.54568481445313 40.640625 C 207.54568481445313 47.8359375 208.46560668945313 53.232421875 210.30545043945313 56.830078125 C 212.14529418945313 60.427734375 214.89334106445313 62.2265625 218.54959106445313 62.2265625 C 222.22927856445313 62.2265625 224.98904418945313 60.427734375 226.82888793945313 56.830078125 C 228.66873168945313 53.232421875 229.58865356445313 47.8359375 229.58865356445313 40.640625 C 229.58865356445313 33.421875 228.66873168945313 28.013671875 226.82888793945313 24.416015625 C 224.98904418945313 20.818359375 222.22927856445313 19.01953125 218.54959106445313 19.01953125 Z M 218.54959106445313 13.39453125 C 224.43240356445313 13.39453125 228.92654418945313 15.720703125 232.03201293945313 20.373046875 C 235.13748168945313 25.025390625 236.69021606445313 31.78125 236.69021606445313 40.640625 C 236.69021606445313 49.4765625 235.13748168945313 56.220703125 232.03201293945313 60.873046875 C 228.92654418945313 65.525390625 224.43240356445313 67.8515625 218.54959106445313 67.8515625 C 212.66677856445313 67.8515625 208.17263793945313 65.525390625 205.06716918945313 60.873046875 C 201.96170043945313 56.220703125 200.40896606445313 49.4765625 200.40896606445313 40.640625 C 200.40896606445313 31.78125 201.96170043945313 25.025390625 205.06716918945313 20.373046875 C 208.17263793945313 15.720703125 212.66677856445313 13.39453125 218.54959106445313 13.39453125 Z " fill="#000000" shape-rendering="geometricPrecision" />
    </g>
    <rect x="898" y="513" width="68" height="92" fill="#ffffff" />
    <g transform="translate(898, 514)">
      <path d="M 20.198020935058594 14.34375 L 48.076927185058594 14.34375 L 48.076927185058594 20.3203125 L 26.701927185058594 20.3203125 L 26.701927185058594 33.1875 C 27.733177185058594 32.8359375 28.764427185058594 32.572265625 29.795677185058594 32.396484375 C 30.826927185058594 32.220703125 31.858177185058594 32.1328125 32.889427185058594 32.1328125 C 38.748802185058594 32.1328125 43.389427185058594 33.73828125 46.811302185058594 36.94921875 C 50.233177185058594 40.16015625 51.944114685058594 44.5078125 51.944114685058594 49.9921875 C 51.944114685058594 55.640625 50.186302185058594 60.029296875 46.670677185058594 63.158203125 C 43.155052185058594 66.287109375 38.198020935058594 67.8515625 31.799583435058594 67.8515625 C 29.596458435058594 67.8515625 27.352317810058594 67.6640625 25.067161560058594 67.2890625 C 22.782005310058594 66.9140625 20.420677185058594 66.3515625 17.983177185058594 65.6015625 L 17.983177185058594 58.46484375 C 20.092552185058594 59.61328125 22.272239685058594 60.46875 24.522239685058594 61.03125 C 26.772239685058594 61.59375 29.151145935058594 61.875 31.658958435058594 61.875 C 35.713645935058594 61.875 38.924583435058594 60.80859375 41.291770935058594 58.67578125 C 43.658958435058594 56.54296875 44.842552185058594 53.6484375 44.842552185058594 49.9921875 C 44.842552185058594 46.3359375 43.658958435058594 43.44140625 41.291770935058594 41.30859375 C 38.924583435058594 39.17578125 35.713645935058594 38.109375 31.658958435058594 38.109375 C 29.760520935058594 38.109375 27.867942810058594 38.3203125 25.981224060058594 38.7421875 C 24.094505310058594 39.1640625 22.166770935058594 39.8203125 20.198020935058594 40.7109375 L 20.198020935058594 14.34375 Z " fill="#000000" shape-rendering="geometricPrecision" />
    </g>
  </g></svg>
  <text x="91" y="195" text-anchor="middle" font-family="Inter, Arial, sans-serif" font-size="4" fill="#5A5266">GTIN 627146286305</text>

  <!-- ============================ PRINT GUIDES (delete before print) ============================ -->
  <g id="guides" fill="none">
    <!-- trim 7.25 x 2.75in -->
    <rect x="9" y="9" width="522" height="198" stroke="#E6007E" stroke-width="0.4" stroke-dasharray="3 2"/>
    <!-- safe 0.125in inside trim -->
    <rect x="18" y="18" width="504" height="180" stroke="#00AEEF" stroke-width="0.4" stroke-dasharray="3 2"/>
    <!-- panel-fold reference: where the wrap curves front<->back (non-printing) -->
    <line x1="168" y1="9" x2="168" y2="207" stroke="#8A9A78" stroke-width="0.3" stroke-dasharray="1 2"/>
    <line x1="372" y1="9" x2="372" y2="207" stroke="#8A9A78" stroke-width="0.3" stroke-dasharray="1 2"/>
  </g>
</svg>
