<?xml version="1.0" encoding="utf-8"?>
<svg xmlns="http://www.w3.org/2000/svg" width="13.0mm" height="13.0mm" viewBox="0 0 13.0 13.0" class="segno"><title>QR: https://benchandbloom.com/recipes/lavender-milk</title><g transform="scale(0.3170731707317073)"><path fill="#fff" d="M0 0h40.0v40.0h-40.0z"/><path class="qrline" stroke="#000" d="M4 4.5h7m6 0h3m1 0h7m2 0h7m-33 1h1m5 0h1m3 0h1m2 0h3m2 0h1m1 0h4m2 0h1m5 0h1m-33 1h1m1 0h3m1 0h1m2 0h3m1 0h1m1 0h2m1 0h1m1 0h1m2 0h2m1 0h1m1 0h3m1 0h1m-33 1h1m1 0h3m1 0h1m6 0h6m1 0h1m1 0h1m3 0h1m1 0h3m1 0h1m-33 1h1m1 0h3m1 0h1m3 0h1m1 0h1m1 0h1m2 0h4m2 0h1m2 0h1m1 0h3m1 0h1m-33 1h1m5 0h1m1 0h1m1 0h10m1 0h1m2 0h1m1 0h1m5 0h1m-33 1h7m1 0h1m1 0h1m1 0h1m1 0h1m1 0h1m1 0h1m1 0h1m1 0h1m1 0h1m1 0h7m-24 1h1m4 0h4m3 0h1m1 0h2m-25 1h1m2 0h1m1 0h2m1 0h7m1 0h1m4 0h1m2 0h2m1 0h1m-28 1h1m2 0h1m4 0h1m4 0h2m1 0h2m2 0h1m3 0h4m3 0h2m-33 1h1m1 0h2m1 0h2m2 0h1m1 0h1m1 0h2m1 0h1m1 0h2m2 0h1m4 0h2m1 0h3m-33 1h1m1 0h2m4 0h1m2 0h1m1 0h1m1 0h2m1 0h1m2 0h1m1 0h1m1 0h1m2 0h2m-29 1h4m1 0h1m1 0h1m1 0h3m1 0h1m1 0h1m1 0h4m2 0h3m2 0h1m2 0h1m-33 1h1m6 0h5m1 0h3m1 0h2m1 0h1m1 0h1m1 0h1m1 0h1m1 0h1m1 0h3m-32 1h3m1 0h2m3 0h1m3 0h3m1 0h2m1 0h1m1 0h1m1 0h4m2 0h1m-31 1h1m1 0h1m3 0h3m2 0h3m1 0h3m1 0h2m1 0h2m1 0h1m4 0h1m-32 1h4m1 0h5m4 0h2m1 0h1m2 0h5m1 0h1m1 0h1m2 0h1m-31 1h1m1 0h1m1 0h1m2 0h4m4 0h2m5 0h3m1 0h1m1 0h1m-30 1h1m1 0h1m1 0h4m1 0h6m1 0h2m3 0h2m1 0h3m3 0h3m-33 1h1m2 0h1m4 0h3m2 0h2m1 0h1m2 0h3m2 0h1m2 0h1m3 0h1m-31 1h1m2 0h3m1 0h2m1 0h3m3 0h1m1 0h2m1 0h1m1 0h2m5 0h1m-29 1h1m1 0h1m1 0h1m1 0h1m2 0h1m2 0h1m3 0h1m1 0h1m3 0h2m3 0h3m-33 1h2m4 0h3m1 0h1m1 0h2m2 0h2m1 0h1m2 0h1m1 0h3m1 0h1m1 0h1m1 0h1m-32 1h5m1 0h2m3 0h2m1 0h1m2 0h4m1 0h1m1 0h1m3 0h1m-30 1h1m1 0h1m1 0h3m1 0h2m1 0h1m1 0h1m3 0h1m2 0h2m2 0h5m2 0h1m-24 1h2m1 0h2m1 0h1m2 0h1m1 0h6m3 0h2m2 0h1m-33 1h7m2 0h3m1 0h2m2 0h2m3 0h1m1 0h1m1 0h1m1 0h4m-32 1h1m5 0h1m1 0h1m3 0h1m3 0h6m2 0h1m3 0h1m2 0h1m-32 1h1m1 0h3m1 0h1m2 0h1m3 0h3m2 0h1m1 0h1m3 0h6m1 0h2m-33 1h1m1 0h3m1 0h1m1 0h3m1 0h1m2 0h5m1 0h1m1 0h1m2 0h1m1 0h1m2 0h1m-32 1h1m1 0h3m1 0h1m2 0h3m3 0h2m2 0h6m3 0h3m1 0h1m-33 1h1m5 0h1m2 0h2m1 0h3m2 0h6m1 0h2m-26 1h7m1 0h1m1 0h1m1 0h1m1 0h3m1 0h2m1 0h1m2 0h2m2 0h1m2 0h1"/></g></svg>
